<?xml version="1.0" encoding="UTF-8" standalone="no"?>
<!-- Created with Inkscape (http://www.inkscape.org/) -->

<svg
   xmlns:dc="http://purl.org/dc/elements/1.1/"
   xmlns:cc="http://creativecommons.org/ns#"
   xmlns:rdf="http://www.w3.org/1999/02/22-rdf-syntax-ns#"
   xmlns:svg="http://www.w3.org/2000/svg"
   xmlns="http://www.w3.org/2000/svg"
   xmlns:sodipodi="http://sodipodi.sourceforge.net/DTD/sodipodi-0.dtd"
   xmlns:inkscape="http://www.inkscape.org/namespaces/inkscape"
   version="1.1"
   id="svg2"
   xml:space="preserve"
   width="1279.8334"
   height="331.55612"
   viewBox="0 0 1279.8334 331.55612"
   sodipodi:docname="logo_lot19.svg"
   inkscape:version="0.92.3 (2405546, 2018-03-11)"><metadata
     id="metadata8"><rdf:RDF><cc:Work
         rdf:about=""><dc:format>image/svg+xml</dc:format><dc:type
           rdf:resource="http://purl.org/dc/dcmitype/StillImage" /><dc:title></dc:title></cc:Work></rdf:RDF></metadata><defs
     id="defs6"><clipPath
       clipPathUnits="userSpaceOnUse"
       id="clipPath20"><path
         d="M 0,0 H 1024 V 768 H 0 Z"
         id="path18"
         inkscape:connector-curvature="0" /></clipPath><clipPath
       clipPathUnits="userSpaceOnUse"
       id="clipPath30"><path
         d="m 33.6355,549.0893 h 956.729 V 300.4213 H 33.6355 Z"
         id="path28"
         inkscape:connector-curvature="0" /></clipPath><clipPath
       clipPathUnits="userSpaceOnUse"
       id="clipPath36"><path
         d="m 33.6355,300.4213 h 956.729 v 248.668 H 33.6355 Z"
         id="path34"
         inkscape:connector-curvature="0" /></clipPath><clipPath
       clipPathUnits="userSpaceOnUse"
       id="clipPath42"><path
         d="M 33,300 H 991 V 550 H 33 Z"
         id="path40"
         inkscape:connector-curvature="0" /></clipPath><clipPath
       clipPathUnits="userSpaceOnUse"
       id="clipPath46"><path
         d="M -82.6655,845.4943 H 1107.885 V 3.604272 H -82.6655 Z"
         id="path44"
         inkscape:connector-curvature="0" /></clipPath><clipPath
       clipPathUnits="userSpaceOnUse"
       id="clipPath50"><path
         d="M 33,300 H 991 V 550 H 33 Z"
         id="path48"
         inkscape:connector-curvature="0" /></clipPath><clipPath
       clipPathUnits="userSpaceOnUse"
       id="clipPath54"><path
         d="m 397,477 h 2 v 3 h -2 z"
         id="path52"
         inkscape:connector-curvature="0" /></clipPath><clipPath
       clipPathUnits="userSpaceOnUse"
       id="clipPath58"><path
         d="m 397.2795,477.8023 h 1.001 v 1.748 h -1.001 z"
         id="path56"
         inkscape:connector-curvature="0" /></clipPath><clipPath
       clipPathUnits="userSpaceOnUse"
       id="clipPath62"><path
         d="M 33,300 H 991 V 550 H 33 Z"
         id="path60"
         inkscape:connector-curvature="0" /></clipPath><clipPath
       clipPathUnits="userSpaceOnUse"
       id="clipPath66"><path
         d="M -82.6655,845.4943 H 1107.885 V 3.604272 H -82.6655 Z"
         id="path64"
         inkscape:connector-curvature="0" /></clipPath><clipPath
       clipPathUnits="userSpaceOnUse"
       id="clipPath70"><path
         d="M 33,300 H 991 V 550 H 33 Z"
         id="path68"
         inkscape:connector-curvature="0" /></clipPath><clipPath
       clipPathUnits="userSpaceOnUse"
       id="clipPath192"><path
         d="M 0,0 H 1024 V 768 H 0 Z"
         id="path190"
         inkscape:connector-curvature="0" /></clipPath><clipPath
       clipPathUnits="userSpaceOnUse"
       id="clipPath202"><path
         d="m 994.4511,173.925 h -54.915 v 248.668 h 54.915 z"
         id="path200"
         inkscape:connector-curvature="0" /></clipPath><clipPath
       clipPathUnits="userSpaceOnUse"
       id="clipPath208"><path
         d="M 1896.265,422.593 H 939.5361 V 173.925 h 956.7289 z"
         id="path206"
         inkscape:connector-curvature="0" /></clipPath><clipPath
       clipPathUnits="userSpaceOnUse"
       id="clipPath214"><path
         d="M 0,0 H 1024 V 768 H 0 Z"
         id="path212"
         inkscape:connector-curvature="0" /></clipPath><clipPath
       clipPathUnits="userSpaceOnUse"
       id="clipPath220"><path
         d="m 939,173 h 958 V 423 H 939 Z"
         id="path218"
         inkscape:connector-curvature="0" /></clipPath><clipPath
       clipPathUnits="userSpaceOnUse"
       id="clipPath224"><path
         d="m 939,173 h 56 v 250 h -56 z"
         id="path222"
         inkscape:connector-curvature="0" /></clipPath><clipPath
       clipPathUnits="userSpaceOnUse"
       id="clipPath228"><path
         d="M 2012.566,-122.48 H 822.0161 V 719.41 H 2012.566 Z"
         id="path226"
         inkscape:connector-curvature="0" /></clipPath><clipPath
       clipPathUnits="userSpaceOnUse"
       id="clipPath232"><path
         d="m 939,173 h 56 v 250 h -56 z"
         id="path230"
         inkscape:connector-curvature="0" /></clipPath><clipPath
       clipPathUnits="userSpaceOnUse"
       id="clipPath1423"><rect
         style="opacity:1;fill:#000000;fill-opacity:0.97586209;stroke:none;stroke-width:0.22500001;stroke-miterlimit:4;stroke-dasharray:none;stroke-dashoffset:0;stroke-opacity:1"
         id="rect1425"
         width="927.4577"
         height="320.94919"
         x="7.6016006"
         y="-572.15045"
         transform="scale(1,-1)" /></clipPath></defs><sodipodi:namedview
     pagecolor="#ffffff"
     bordercolor="#666666"
     borderopacity="1"
     objecttolerance="10"
     gridtolerance="10"
     guidetolerance="10"
     inkscape:pageopacity="0"
     inkscape:pageshadow="2"
     inkscape:window-width="3840"
     inkscape:window-height="2031"
     id="namedview4"
     showgrid="false"
     fit-margin-top="0"
     fit-margin-left="0"
     fit-margin-right="0"
     fit-margin-bottom="0"
     inkscape:zoom="1.84375"
     inkscape:cx="673.67247"
     inkscape:cy="291.1704"
     inkscape:window-x="0"
     inkscape:window-y="55"
     inkscape:window-maximized="1"
     inkscape:current-layer="g10" /><g
     id="g10"
     inkscape:groupmode="layer"
     inkscape:label="lot19"
     transform="matrix(1.3333333,0,0,-1.3333333,-44.847332,732.11825)"><g
       id="g12" /><g
       id="g14"
       style="opacity:1;fill:#000000;fill-opacity:0;stroke:none"><g
         id="g16"
         clip-path="url(#clipPath20)"
         style="fill:#000000;fill-opacity:0;stroke:none"><path
           d="M 0,768 H 1024 V 0 H 0 Z"
           style="fill:#000000;fill-opacity:0;fill-rule:nonzero;stroke:none"
           id="path22"
           inkscape:connector-curvature="0" /></g></g><g
       id="g1419"
       clip-path="url(#clipPath1423)"><g
         id="g1346"><g
           id="g1278"><g
             clip-path="none"
             id="g24"><g
               clip-path="url(#clipPath30)"
               id="g26"><g
                 clip-path="url(#clipPath36)"
                 id="g32"><g
                   id="g38" /><g
                   id="g184"><g
                     id="g182"
                     clip-path="url(#clipPath42)"><g
                       id="g72" /><g
                       id="g92"><g
                         id="g90"
                         clip-path="url(#clipPath46)"><g
                           id="g88"
                           clip-path="url(#clipPath50)"><g
                             id="g74" /><g
                             id="g86"><g
                               id="g84"
                               clip-path="url(#clipPath54)"><g
                                 id="g76" /><g
                                 id="g82"><g
                                   id="g80"
                                   clip-path="url(#clipPath58)"><path
                                   inkscape:connector-curvature="0"
                                   id="path78"
                                   style="fill:#80d4c9;fill-opacity:1;fill-rule:nonzero;stroke:none"
                                   d="m 398.2806,479.5506 -1.002,-1.749 c 0.255,0.477 0.525,0.954 0.795,1.415 0.064,0.111 0.128,0.223 0.207,0.334" /></g></g></g></g></g></g></g><g
                       id="g100"><g
                         id="g98"
                         clip-path="url(#clipPath62)"><path
                           inkscape:connector-curvature="0"
                           id="path94"
                           style="fill:#5d1018;fill-opacity:1;fill-rule:nonzero;stroke:none"
                           d="m 70.7601,424.5988 v -1.813 h -35.77 v 78.79 h 1.812 v -76.977 z" /><path
                           inkscape:connector-curvature="0"
                           id="path96"
                           style="fill:#5d1018;fill-opacity:1;fill-rule:nonzero;stroke:none"
                           d="m 72.1151,421.4311 h -38.48 v 81.499 h 4.522 v -76.976 h 33.958 z" /></g></g><g
                       id="g180"><g
                         id="g178"
                         clip-path="url(#clipPath66)"><g
                           id="g176"
                           clip-path="url(#clipPath70)"><path
                             inkscape:connector-curvature="0"
                             id="path102"
                             style="fill:#5d1018;fill-opacity:1;fill-rule:nonzero;stroke:none"
                             d="m 75.5285,470.4793 h 1.813 v -47.693 h -1.813 z m 0.954,19.078 c 0.444,0 0.811,-0.159 1.097,-0.477 0.286,-0.319 0.429,-0.701 0.429,-1.145 0,-1.082 -0.51,-1.621 -1.526,-1.621 -1.082,0 -1.621,0.539 -1.621,1.621 0,0.444 0.142,0.826 0.429,1.145 0.286,0.318 0.682,0.477 1.192,0.477" /><path
                             inkscape:connector-curvature="0"
                             id="path104"
                             style="fill:#5d1018;fill-opacity:1;fill-rule:nonzero;stroke:none"
                             d="m 76.2377,487.6902 c 0.071,-0.016 0.297,-0.026 0.395,-0.012 0.01,0.05 0.021,0.133 0.021,0.257 0,0.125 -0.029,0.181 -0.082,0.24 l -0.089,0.027 c -0.114,0 -0.171,-0.018 -0.182,-0.025 -0.056,-0.062 -0.085,-0.117 -0.085,-0.242 0,-0.122 0.012,-0.2 0.022,-0.245 m 0.245,-2.731 c -1.836,0 -2.976,1.14 -2.976,2.976 0,0.777 0.268,1.486 0.776,2.051 0.381,0.423 1.072,0.926 2.2,0.926 0.832,0 1.559,-0.32 2.104,-0.926 0.509,-0.566 0.777,-1.275 0.777,-2.051 0,-1.836 -1.104,-2.976 -2.881,-2.976 m 2.213,-63.528 h -4.522 v 50.404 h 4.522 z" /><path
                             inkscape:connector-curvature="0"
                             id="path106"
                             style="fill:#5d1018;fill-opacity:1;fill-rule:nonzero;stroke:none"
                             d="m 109.6771,424.2169 c 2.862,0 5.516,0.508 7.965,1.526 2.447,1.017 4.562,2.448 6.343,4.293 1.78,1.843 3.196,4.037 4.245,6.582 1.049,2.542 1.669,5.372 1.86,8.489 v 3.148 c -0.191,3.115 -0.811,5.961 -1.86,8.537 -1.049,2.575 -2.465,4.784 -4.245,6.629 -1.781,1.844 -3.896,3.274 -6.343,4.292 -2.449,1.017 -5.103,1.527 -7.965,1.527 -2.989,0 -5.74,-0.558 -8.251,-1.67 -2.513,-1.113 -4.674,-2.655 -6.486,-4.626 -1.812,-1.972 -3.212,-4.34 -4.197,-7.106 -0.987,-2.767 -1.479,-5.804 -1.479,-9.109 0,-3.308 0.492,-6.344 1.479,-9.11 0.985,-2.766 2.385,-5.136 4.197,-7.107 1.812,-1.971 3.973,-3.514 6.486,-4.625 2.511,-1.114 5.262,-1.67 8.251,-1.67 m 22.225,20.89 v -16.025 c 0,-4.77 -0.445,-8.871 -1.335,-12.305 -0.891,-3.434 -2.275,-6.248 -4.149,-8.442 -1.877,-2.194 -4.293,-3.799 -7.25,-4.817 -2.957,-1.016 -6.534,-1.526 -10.731,-1.526 -3.052,0 -6.073,0.35 -9.062,1.049 -2.989,0.701 -5.691,1.781 -8.108,3.244 l 0.669,1.717 c 2.415,-1.463 5.055,-2.529 7.917,-3.196 2.861,-0.668 5.722,-1.002 8.584,-1.002 3.879,0 7.185,0.477 9.92,1.431 2.734,0.954 4.975,2.449 6.725,4.483 1.748,2.036 3.02,4.643 3.816,7.822 0.794,3.181 1.192,7.026 1.192,11.542 v 7.249 c -1.717,-4.325 -4.357,-7.759 -7.918,-10.301 -3.561,-2.545 -7.726,-3.816 -12.495,-3.816 -3.243,0 -6.216,0.603 -8.918,1.812 -2.704,1.208 -5.041,2.909 -7.012,5.104 -1.971,2.194 -3.514,4.769 -4.625,7.726 -1.114,2.957 -1.67,6.215 -1.67,9.777 0,3.496 0.556,6.74 1.67,9.73 1.111,2.988 2.654,5.563 4.625,7.726 1.971,2.161 4.308,3.847 7.012,5.056 2.702,1.207 5.675,1.811 8.918,1.811 4.769,0 8.934,-1.272 12.495,-3.815 3.561,-2.544 6.201,-5.947 7.918,-10.206 v 13.545 h 1.812 v -22.416 -1.431 z" /><path
                             inkscape:connector-curvature="0"
                             id="path108"
                             style="fill:#5d1018;fill-opacity:1;fill-rule:nonzero;stroke:none"
                             d="m 109.6771,467.8854 c -2.782,0 -5.373,-0.523 -7.703,-1.554 -2.327,-1.031 -4.358,-2.48 -6.037,-4.305 -1.681,-1.828 -2.999,-4.063 -3.918,-6.643 -0.929,-2.604 -1.4,-5.515 -1.4,-8.655 0,-3.14 0.471,-6.052 1.4,-8.654 0.92,-2.582 2.238,-4.817 3.918,-6.645 1.679,-1.827 3.71,-3.275 6.037,-4.304 2.325,-1.031 4.916,-1.554 7.703,-1.554 2.669,0 5.174,0.479 7.445,1.423 2.265,0.941 4.246,2.281 5.888,3.982 1.655,1.714 2.99,3.785 3.967,6.158 0.988,2.393 1.58,5.103 1.761,8.055 l -0.002,3.065 c -0.179,2.871 -0.772,5.599 -1.761,8.026 -0.977,2.4 -2.311,4.486 -3.965,6.2 -1.642,1.7 -3.624,3.04 -5.888,3.981 -2.274,0.945 -4.779,1.424 -7.445,1.424 m -1.24,-67.248 c -3.141,0 -6.293,0.365 -9.37,1.085 -3.115,0.73 -5.975,1.875 -8.501,3.403 l -0.974,0.59 1.666,4.281 1.38,-0.835 c 2.281,-1.383 4.812,-2.404 7.523,-3.036 2.745,-0.642 5.53,-0.966 8.276,-0.966 3.71,0 6.897,0.456 9.474,1.355 2.492,0.869 4.559,2.244 6.144,4.087 1.6,1.864 2.788,4.31 3.529,7.268 0.764,3.061 1.152,6.833 1.152,11.213 v 1.772 c -1.571,-2.321 -3.502,-4.304 -5.776,-5.927 -3.778,-2.699 -8.247,-4.068 -13.283,-4.068 -3.421,0 -6.608,0.649 -9.471,1.93 -2.866,1.28 -5.378,3.109 -7.467,5.436 -2.076,2.309 -3.719,5.052 -4.885,8.154 -1.166,3.093 -1.757,6.543 -1.757,10.254 0,3.644 0.591,7.076 1.755,10.202 1.167,3.136 2.814,5.884 4.894,8.166 2.089,2.291 4.599,4.101 7.46,5.38 2.866,1.28 6.053,1.93 9.471,1.93 5.034,0 9.503,-1.369 13.283,-4.068 2.274,-1.624 4.205,-3.596 5.776,-5.894 v 9.485 h 4.521 v -42.752 c 0,-4.862 -0.464,-9.116 -1.379,-12.645 -0.938,-3.619 -2.429,-6.64 -4.431,-8.982 -2.026,-2.369 -4.662,-4.125 -7.837,-5.218 -3.091,-1.062 -6.849,-1.6 -11.173,-1.6" /><path
                             inkscape:connector-curvature="0"
                             id="path110"
                             style="fill:#5d1018;fill-opacity:1;fill-rule:nonzero;stroke:none"
                             d="m 164.5245,471.0518 c 2.416,0 4.689,-0.462 6.82,-1.383 2.13,-0.923 3.974,-2.162 5.533,-3.72 1.558,-1.559 2.781,-3.402 3.672,-5.533 0.89,-2.13 1.335,-4.435 1.335,-6.915 v -30.715 h -1.907 v 30.715 c 0,2.225 -0.398,4.292 -1.192,6.201 -0.796,1.907 -1.894,3.577 -3.291,5.007 -1.4,1.431 -3.037,2.542 -4.913,3.339 -1.876,0.794 -3.896,1.192 -6.057,1.192 -2.163,0 -4.196,-0.398 -6.105,-1.192 -1.908,-0.797 -3.562,-1.908 -4.96,-3.339 -1.399,-1.43 -2.496,-3.1 -3.29,-5.007 -0.796,-1.909 -1.193,-3.976 -1.193,-6.201 v -30.715 h -1.812 v 78.79 h 1.812 v -40.158 c 1.462,2.924 3.561,5.261 6.296,7.011 2.733,1.748 5.819,2.623 9.252,2.623" /><path
                             inkscape:connector-curvature="0"
                             id="path112"
                             style="fill:#5d1018;fill-opacity:1;fill-rule:nonzero;stroke:none"
                             d="m 183.2395,421.4311 h -4.617 v 32.07 c 0,2.033 -0.366,3.945 -1.088,5.68 -0.725,1.738 -1.738,3.279 -3.009,4.582 -1.264,1.291 -2.769,2.314 -4.473,3.037 -1.7,0.72 -3.561,1.085 -5.528,1.085 -1.97,0 -3.849,-0.366 -5.584,-1.088 -1.733,-0.723 -3.251,-1.745 -4.512,-3.035 -1.272,-1.3 -2.284,-2.842 -3.009,-4.581 -0.722,-1.733 -1.088,-3.644 -1.088,-5.68 v -32.07 h -4.522 v 81.499 h 4.522 v -37.016 c 1.203,1.409 2.61,2.632 4.211,3.656 2.942,1.882 6.301,2.837 9.982,2.837 2.587,0 5.063,-0.503 7.357,-1.494 2.279,-0.988 4.281,-2.335 5.953,-4.006 1.676,-1.677 3.009,-3.684 3.965,-5.968 0.956,-2.289 1.44,-4.791 1.44,-7.438 z" /><path
                             inkscape:connector-curvature="0"
                             id="path114"
                             style="fill:#5d1018;fill-opacity:1;fill-rule:nonzero;stroke:none"
                             d="m 212.027,424.5988 c -0.892,-0.701 -1.877,-1.273 -2.958,-1.717 -1.082,-0.444 -2.257,-0.668 -3.528,-0.668 -2.672,0 -4.882,0.937 -6.63,2.814 -1.749,1.875 -2.623,4.276 -2.623,7.202 v 36.437 h -7.059 v 1.813 h 7.059 v 16.788 h 1.812 v -16.788 h 12.019 v -1.813 H 198.1 v -36.437 c 0,-2.418 0.7,-4.388 2.099,-5.914 1.397,-1.527 3.179,-2.29 5.342,-2.29 2.098,0 3.91,0.7 5.437,2.099 z" /><path
                             inkscape:connector-curvature="0"
                             id="path116"
                             style="fill:#5d1018;fill-opacity:1;fill-rule:nonzero;stroke:none"
                             d="m 205.5406,420.8595 c -3.051,0 -5.615,1.092 -7.621,3.245 -1.982,2.124 -2.987,4.858 -2.987,8.125 v 35.083 h -7.058 v 4.522 h 7.058 v 16.788 h 4.522 v -16.788 h 12.019 v -4.522 h -12.019 v -35.083 c 0,-2.084 0.571,-3.719 1.743,-4.998 1.14,-1.246 2.56,-1.851 4.343,-1.851 1.764,0 3.243,0.57 4.521,1.743 l 1.149,1.053 2.653,-3.858 -0.999,-0.785 c -0.988,-0.776 -2.092,-1.417 -3.28,-1.905 -1.243,-0.511 -2.604,-0.769 -4.044,-0.769" /><path
                             inkscape:connector-curvature="0"
                             id="path118"
                             style="fill:#5d1018;fill-opacity:1;fill-rule:nonzero;stroke:none"
                             d="m 244.0756,445.7271 c 1.588,-0.541 3.004,-1.288 4.245,-2.242 1.239,-0.954 2.241,-2.179 3.004,-3.672 0.763,-1.495 1.145,-3.419 1.145,-5.771 0,-2.227 -0.477,-4.087 -1.431,-5.581 -0.954,-1.494 -2.163,-2.703 -3.625,-3.624 -1.463,-0.923 -3.116,-1.59 -4.96,-2.003 -1.845,-0.413 -3.657,-0.62 -5.437,-0.62 -3.243,0 -6.312,0.587 -9.204,1.765 -2.895,1.176 -5.485,2.876 -7.775,5.103 l 1.24,1.43 c 2.099,-2.035 4.484,-3.624 7.154,-4.769 2.671,-1.144 5.532,-1.717 8.585,-1.717 1.589,0 3.196,0.175 4.817,0.525 1.622,0.349 3.083,0.921 4.388,1.717 1.302,0.794 2.368,1.827 3.195,3.1 0.826,1.271 1.24,2.829 1.24,4.674 0,1.97 -0.319,3.608 -0.954,4.912 -0.636,1.303 -1.51,2.352 -2.623,3.148 -1.113,0.795 -2.385,1.446 -3.815,1.955 -1.431,0.509 -2.942,0.985 -4.531,1.431 l -3.052,0.858 c -1.274,0.318 -2.64,0.716 -4.102,1.193 -1.463,0.477 -2.814,1.176 -4.054,2.099 -1.24,0.92 -2.289,2.129 -3.148,3.624 -0.858,1.494 -1.287,3.449 -1.287,5.866 0,2.035 0.429,3.799 1.287,5.294 0.859,1.494 1.987,2.734 3.386,3.72 1.398,0.986 2.973,1.717 4.722,2.195 1.749,0.476 3.513,0.715 5.294,0.715 2.734,0 5.23,-0.367 7.488,-1.097 2.256,-0.732 4.403,-1.925 6.439,-3.577 l -1.05,-1.431 c -1.907,1.462 -3.879,2.528 -5.913,3.195 -2.037,0.669 -4.357,1.002 -6.964,1.002 -1.526,0 -3.053,-0.207 -4.579,-0.62 -1.526,-0.414 -2.894,-1.017 -4.101,-1.812 -1.209,-0.796 -2.194,-1.829 -2.957,-3.1 -0.763,-1.273 -1.144,-2.767 -1.144,-4.484 0,-2.035 0.348,-3.705 1.048,-5.007 0.7,-1.304 1.589,-2.337 2.671,-3.101 1.081,-0.763 2.273,-1.367 3.577,-1.811 1.303,-0.446 2.591,-0.828 3.864,-1.145 l 3.052,-0.859 c 1.653,-0.446 3.274,-0.939 4.865,-1.478" /><path
                             inkscape:connector-curvature="0"
                             id="path120"
                             style="fill:#5d1018;fill-opacity:1;fill-rule:nonzero;stroke:none"
                             d="m 237.0165,420.8595 c -3.409,0 -6.677,0.627 -9.716,1.865 -3.041,1.235 -5.803,3.048 -8.207,5.386 l -0.917,0.892 3.016,3.48 1.029,-0.998 c 1.968,-1.908 4.237,-3.421 6.744,-4.497 3.789,-1.622 8.153,-2.07 12.582,-1.112 1.466,0.315 2.8,0.836 3.968,1.549 1.124,0.685 2.054,1.587 2.765,2.682 0.678,1.042 1.021,2.366 1.021,3.935 0,1.753 -0.274,3.206 -0.817,4.319 -0.54,1.106 -1.258,1.97 -2.193,2.639 -1.004,0.717 -2.175,1.316 -3.481,1.782 -1.389,0.493 -2.884,0.965 -4.443,1.402 l -3.053,0.859 c -1.244,0.309 -2.654,0.719 -4.155,1.208 -1.598,0.522 -3.093,1.295 -4.443,2.301 -1.383,1.026 -2.565,2.384 -3.513,4.036 -0.974,1.695 -1.468,3.895 -1.468,6.541 0,2.264 0.494,4.273 1.468,5.969 0.953,1.659 2.225,3.056 3.78,4.152 1.519,1.072 3.251,1.877 5.146,2.395 1.857,0.506 3.758,0.762 5.65,0.762 2.86,0 5.52,-0.391 7.905,-1.162 2.406,-0.781 4.719,-2.064 6.876,-3.815 l 1.002,-0.813 -2.632,-3.586 -1.098,0.842 c -1.779,1.362 -3.633,2.366 -5.512,2.983 -1.89,0.62 -4.09,0.934 -6.541,0.934 -1.397,0 -2.819,-0.193 -4.225,-0.573 -1.382,-0.375 -2.631,-0.926 -3.711,-1.636 -1.03,-0.679 -1.885,-1.576 -2.54,-2.666 -0.639,-1.067 -0.95,-2.306 -0.95,-3.786 0,-1.802 0.298,-3.271 0.887,-4.366 0.604,-1.127 1.343,-1.989 2.259,-2.635 0.972,-0.686 2.059,-1.237 3.232,-1.636 1.266,-0.433 2.528,-0.807 3.755,-1.113 l 3.091,-0.869 c 1.653,-0.446 3.317,-0.951 4.933,-1.499 l 0.002,-10e-4 c 1.724,-0.587 3.284,-1.412 4.634,-2.451 1.393,-1.072 2.532,-2.461 3.384,-4.129 0.859,-1.682 1.294,-3.831 1.294,-6.388 0,-2.478 -0.553,-4.602 -1.644,-6.309 -1.058,-1.658 -2.419,-3.019 -4.045,-4.042 -1.587,-1.001 -3.399,-1.735 -5.386,-2.179 -1.937,-0.432 -3.866,-0.652 -5.733,-0.652" /><path
                             inkscape:connector-curvature="0"
                             id="path122"
                             style="fill:#5d1018;fill-opacity:1;fill-rule:nonzero;stroke:none"
                             d="m 335.0735,446.633 c 0,3.115 -0.573,6.057 -1.717,8.823 -1.145,2.767 -2.719,5.166 -4.722,7.202 -2.003,2.035 -4.373,3.639 -7.106,4.817 -2.736,1.176 -5.661,1.765 -8.776,1.765 -3.116,0 -6.042,-0.589 -8.775,-1.765 -2.736,-1.178 -5.103,-2.782 -7.107,-4.817 -2.003,-2.036 -3.577,-4.435 -4.721,-7.202 -1.145,-2.766 -1.717,-5.708 -1.717,-8.823 0,-3.18 0.572,-6.138 1.717,-8.871 1.144,-2.735 2.718,-5.12 4.721,-7.154 2.004,-2.036 4.371,-3.641 7.107,-4.817 2.733,-1.177 5.659,-1.765 8.775,-1.765 3.115,0 6.04,0.588 8.776,1.765 2.733,1.176 5.103,2.781 7.106,4.817 2.003,2.034 3.577,4.419 4.722,7.154 1.144,2.733 1.717,5.691 1.717,8.871 m -22.321,24.419 c 3.37,0 6.534,-0.637 9.491,-1.907 2.957,-1.274 5.516,-3.005 7.679,-5.199 2.161,-2.195 3.863,-4.769 5.103,-7.727 1.24,-2.957 1.86,-6.152 1.86,-9.586 0,-3.434 -0.62,-6.646 -1.86,-9.634 -1.24,-2.99 -2.942,-5.58 -5.103,-7.774 -2.163,-2.194 -4.722,-3.911 -7.679,-5.151 -2.957,-1.24 -6.121,-1.86 -9.491,-1.86 -3.371,0 -6.534,0.62 -9.491,1.86 -2.957,1.24 -5.518,2.957 -7.679,5.151 -2.162,2.194 -3.862,4.784 -5.103,7.774 -1.239,2.988 -1.86,6.2 -1.86,9.634 0,3.434 0.621,6.629 1.86,9.586 1.241,2.958 2.941,5.532 5.103,7.727 2.161,2.194 4.722,3.925 7.679,5.199 2.957,1.27 6.12,1.907 9.491,1.907" /><path
                             inkscape:connector-curvature="0"
                             id="path124"
                             style="fill:#5d1018;fill-opacity:1;fill-rule:nonzero;stroke:none"
                             d="m 312.7527,467.8854 c -2.916,0 -5.688,-0.557 -8.24,-1.655 -2.561,-1.102 -4.807,-2.624 -6.677,-4.523 -1.872,-1.903 -3.364,-4.181 -4.434,-6.769 -1.072,-2.588 -1.615,-5.382 -1.615,-8.305 0,-2.986 0.543,-5.795 1.612,-8.348 1.072,-2.561 2.565,-4.824 4.437,-6.727 1.87,-1.901 4.116,-3.422 6.677,-4.523 2.549,-1.098 5.321,-1.655 8.24,-1.655 2.917,0 5.69,0.557 8.24,1.655 2.563,1.103 4.809,2.625 6.676,4.522 1.872,1.902 3.365,4.165 4.438,6.728 1.07,2.554 1.612,5.363 1.612,8.348 0,2.921 -0.543,5.716 -1.615,8.305 -1.071,2.59 -2.564,4.867 -4.435,6.769 -1.867,1.897 -4.113,3.419 -6.676,4.523 -2.554,1.098 -5.327,1.655 -8.24,1.655 m 0,-47.026 c -3.538,0 -6.908,0.662 -10.016,1.965 -3.11,1.305 -5.843,3.139 -8.119,5.45 -2.274,2.307 -4.088,5.069 -5.389,8.206 -1.303,3.14 -1.964,6.556 -1.964,10.153 0,3.598 0.661,6.999 1.965,10.11 1.302,3.104 3.115,5.847 5.388,8.153 2.271,2.305 4.999,4.153 8.108,5.492 3.116,1.34 6.489,2.018 10.027,2.018 3.537,0 6.91,-0.678 10.026,-2.017 3.108,-1.338 5.835,-3.186 8.108,-5.493 2.276,-2.31 4.089,-5.053 5.388,-8.153 1.304,-3.11 1.965,-6.511 1.965,-10.11 0,-3.599 -0.66,-7.015 -1.963,-10.154 -1.299,-3.132 -3.112,-5.893 -5.389,-8.205 -2.279,-2.313 -5.011,-4.146 -8.12,-5.45 -3.108,-1.303 -6.478,-1.965 -10.015,-1.965" /><path
                             inkscape:connector-curvature="0"
                             id="path126"
                             style="fill:#5d1018;fill-opacity:1;fill-rule:nonzero;stroke:none"
                             d="m 362.9249,500.1453 c -2.163,0 -3.958,-0.732 -5.389,-2.194 -1.431,-1.464 -2.146,-3.307 -2.146,-5.533 v -21.939 h 12.21 v -1.812 h -12.21 v -45.881 h -1.813 v 45.881 h -6.104 v 1.812 h 6.104 v 21.939 c 0,2.734 0.89,5.023 2.671,6.868 1.78,1.844 4.007,2.766 6.677,2.766 1.272,0 2.464,-0.223 3.577,-0.667 1.112,-0.446 2.114,-1.018 3.005,-1.717 l -1.144,-1.527 c -1.527,1.336 -3.339,2.004 -5.438,2.004" /><path
                             inkscape:connector-curvature="0"
                             id="path128"
                             style="fill:#5d1018;fill-opacity:1;fill-rule:nonzero;stroke:none"
                             d="m 356.7444,421.4311 h -4.522 v 45.881 h -6.104 v 4.523 h 6.104 v 20.583 c 0,3.085 1.026,5.712 3.051,7.81 2.036,2.109 4.611,3.179 7.651,3.179 1.436,0 2.809,-0.257 4.079,-0.764 1.229,-0.492 2.352,-1.134 3.34,-1.909 l 1.043,-0.819 -2.817,-3.755 -1.099,0.962 c -1.283,1.123 -2.77,1.668 -4.546,1.668 -1.798,0 -3.244,-0.584 -4.42,-1.786 -1.184,-1.211 -1.76,-2.711 -1.76,-4.586 v -20.583 h 12.21 v -4.523 h -12.21 z" /><path
                             inkscape:connector-curvature="0"
                             id="path130"
                             style="fill:#5d1018;fill-opacity:1;fill-rule:nonzero;stroke:none"
                             d="m 521.7115,369.5964 v -30.1 c 0,-2.541 -0.462,-4.922 -1.381,-7.143 -0.922,-2.224 -2.191,-4.144 -3.81,-5.763 -1.62,-1.619 -3.525,-2.891 -5.716,-3.811 -2.19,-0.919 -4.524,-1.38 -7.001,-1.38 -2.54,0 -4.89,0.461 -7.048,1.38 -2.16,0.92 -4.048,2.192 -5.668,3.811 -1.619,1.619 -2.89,3.539 -3.81,5.763 -0.921,2.221 -1.381,4.602 -1.381,7.143 v 30.1 h 1.809 v -30.1 c 0,-2.286 0.413,-4.414 1.239,-6.382 0.825,-1.968 1.967,-3.699 3.429,-5.191 1.46,-1.493 3.158,-2.652 5.096,-3.476 1.937,-0.827 4.048,-1.239 6.334,-1.239 2.286,0 4.397,0.412 6.335,1.239 1.936,0.824 3.634,1.983 5.096,3.476 1.459,1.492 2.603,3.223 3.428,5.191 0.825,1.968 1.239,4.096 1.239,6.382 v 30.1 z" /><path
                             inkscape:connector-curvature="0"
                             id="path132"
                             style="fill:#5d1018;fill-opacity:1;fill-rule:nonzero;stroke:none"
                             d="m 503.8036,320.0443 c -2.71,0 -5.26,0.501 -7.579,1.489 -2.306,0.982 -4.357,2.362 -6.095,4.1 -1.741,1.741 -3.122,3.828 -4.103,6.202 -0.985,2.374 -1.484,4.952 -1.484,7.661 v 31.455 h 4.518 v -31.455 c 0,-2.096 0.381,-4.067 1.133,-5.856 0.756,-1.804 1.815,-3.408 3.148,-4.769 1.328,-1.358 2.895,-2.426 4.659,-3.178 1.758,-0.75 3.711,-1.13 5.803,-1.13 2.092,0 4.044,0.38 5.803,1.13 1.763,0.751 3.33,1.82 4.659,3.178 1.334,1.363 2.394,2.968 3.147,4.767 0.753,1.793 1.134,3.764 1.134,5.858 v 31.455 h 4.52 v -31.455 c 0,-2.703 -0.499,-5.28 -1.485,-7.661 -0.985,-2.379 -2.366,-4.466 -4.104,-6.202 -1.738,-1.74 -3.807,-3.119 -6.148,-4.103 -2.351,-0.986 -4.883,-1.486 -7.526,-1.486" /><path
                             inkscape:connector-curvature="0"
                             id="path134"
                             style="fill:#5d1018;fill-opacity:1;fill-rule:nonzero;stroke:none"
                             d="m 558.6682,344.8788 c 1.586,-0.54 3,-1.286 4.239,-2.239 1.238,-0.952 2.238,-2.176 2.999,-3.667 0.762,-1.493 1.144,-3.414 1.144,-5.763 0,-2.223 -0.476,-4.081 -1.429,-5.572 -0.952,-1.492 -2.159,-2.7 -3.62,-3.619 -1.461,-0.922 -3.111,-1.589 -4.952,-2.001 -1.843,-0.412 -3.653,-0.619 -5.43,-0.619 -3.238,0 -6.303,0.586 -9.191,1.762 -2.891,1.175 -5.478,2.873 -7.764,5.096 l 1.238,1.429 c 2.096,-2.033 4.478,-3.619 7.144,-4.763 2.667,-1.142 5.525,-1.714 8.573,-1.714 1.586,0 3.191,0.174 4.81,0.524 1.62,0.348 3.079,0.92 4.382,1.714 1.3,0.793 2.365,1.825 3.191,3.096 0.825,1.269 1.238,2.825 1.238,4.667 0,1.968 -0.319,3.603 -0.953,4.906 -0.635,1.3 -1.508,2.348 -2.619,3.143 -1.112,0.794 -2.381,1.444 -3.81,1.953 -1.429,0.507 -2.938,0.983 -4.525,1.428 l -3.048,0.858 c -1.271,0.317 -2.635,0.714 -4.096,1.19 -1.461,0.477 -2.81,1.175 -4.047,2.096 -1.239,0.92 -2.286,2.127 -3.144,3.62 -0.857,1.491 -1.286,3.444 -1.286,5.857 0,2.032 0.429,3.794 1.286,5.287 0.858,1.491 1.984,2.729 3.381,3.715 1.397,0.984 2.969,1.714 4.716,2.191 1.745,0.476 3.507,0.714 5.286,0.714 2.73,0 5.223,-0.366 7.478,-1.095 2.252,-0.731 4.396,-1.922 6.429,-3.572 l -1.048,-1.429 c -1.905,1.46 -3.874,2.524 -5.905,3.191 -2.034,0.667 -4.351,1 -6.954,1 -1.524,0 -3.048,-0.207 -4.572,-0.619 -1.524,-0.414 -2.89,-1.016 -4.096,-1.81 -1.207,-0.795 -2.191,-1.826 -2.953,-3.095 -0.762,-1.272 -1.142,-2.763 -1.142,-4.478 0,-2.032 0.348,-3.699 1.047,-5 0.698,-1.302 1.587,-2.333 2.667,-3.096 1.079,-0.762 2.27,-1.366 3.572,-1.809 1.301,-0.445 2.587,-0.827 3.858,-1.144 l 3.048,-0.857 c 1.65,-0.445 3.27,-0.937 4.858,-1.476" /><path
                             inkscape:connector-curvature="0"
                             id="path136"
                             style="fill:#5d1018;fill-opacity:1;fill-rule:nonzero;stroke:none"
                             d="m 551.6189,320.0443 c -3.405,0 -6.669,0.626 -9.702,1.863 -3.036,1.233 -5.795,3.043 -8.197,5.379 l -0.918,0.891 3.015,3.479 1.03,-0.998 c 1.964,-1.907 4.23,-3.417 6.733,-4.49 3.784,-1.621 8.135,-2.067 12.564,-1.112 1.464,0.316 2.797,0.837 3.961,1.547 1.121,0.683 2.05,1.584 2.761,2.678 0.676,1.04 1.019,2.363 1.019,3.929 0,1.75 -0.274,3.2 -0.815,4.312 -0.539,1.105 -1.256,1.967 -2.19,2.635 -1.002,0.715 -2.17,1.313 -3.476,1.777 -1.389,0.494 -2.882,0.965 -4.435,1.401 l -3.051,0.857 c -1.255,0.314 -2.663,0.723 -4.148,1.208 -1.595,0.519 -3.088,1.292 -4.437,2.297 -1.382,1.026 -2.562,2.382 -3.509,4.032 -0.973,1.692 -1.466,3.889 -1.466,6.532 0,2.261 0.493,4.267 1.466,5.962 0.953,1.657 2.224,3.052 3.775,4.146 1.519,1.071 3.248,1.875 5.14,2.391 1.853,0.506 3.752,0.762 5.642,0.762 2.856,0 5.513,-0.39 7.895,-1.161 2.403,-0.78 4.713,-2.062 6.866,-3.809 l 1.002,-0.813 -2.63,-3.584 -1.098,0.842 c -1.774,1.36 -3.626,2.362 -5.503,2.978 -1.887,0.619 -4.084,0.933 -6.532,0.933 -1.395,0 -2.814,-0.193 -4.217,-0.573 -1.382,-0.375 -2.628,-0.924 -3.705,-1.633 -1.046,-0.688 -1.875,-1.558 -2.537,-2.662 -0.639,-1.064 -0.949,-2.301 -0.949,-3.779 0,-1.799 0.298,-3.265 0.885,-4.359 0.596,-1.11 1.354,-1.994 2.255,-2.63 0.972,-0.686 2.058,-1.236 3.228,-1.635 1.261,-0.43 2.522,-0.804 3.75,-1.111 l 3.086,-0.867 c 1.652,-0.446 3.314,-0.95 4.926,-1.497 l 0.003,-0.001 c 1.721,-0.587 3.279,-1.41 4.627,-2.447 1.393,-1.071 2.53,-2.46 3.381,-4.125 0.856,-1.679 1.291,-3.825 1.291,-6.379 0,-2.476 -0.552,-4.596 -1.641,-6.302 -1.059,-1.656 -2.418,-3.015 -4.041,-4.036 -1.584,-1 -3.394,-1.732 -5.378,-2.177 -1.937,-0.432 -3.863,-0.651 -5.726,-0.651" /><path
                             inkscape:connector-curvature="0"
                             id="path138"
                             style="fill:#5d1018;fill-opacity:1;fill-rule:nonzero;stroke:none"
                             d="m 616.7705,325.3044 c -3.748,-2.605 -8.351,-3.905 -13.812,-3.905 -3.366,0 -6.51,0.618 -9.43,1.857 -2.921,1.238 -5.445,2.953 -7.572,5.143 -2.128,2.192 -3.81,4.778 -5.049,7.763 -1.238,2.985 -1.857,6.192 -1.857,9.621 0,3.429 0.619,6.62 1.857,9.573 1.239,2.953 2.921,5.524 5.049,7.715 2.127,2.191 4.651,3.921 7.572,5.192 2.92,1.269 6.064,1.904 9.43,1.904 5.968,0 10.921,-1.619 14.859,-4.858 l -1.047,-1.524 c -3.557,3.048 -8.161,4.573 -13.812,4.573 -3.112,0 -6,-0.588 -8.668,-1.763 -2.667,-1.176 -5,-2.778 -7.001,-4.809 -2,-2.034 -3.572,-4.415 -4.715,-7.144 -1.143,-2.731 -1.714,-5.685 -1.714,-8.859 0,-3.176 0.571,-6.144 1.714,-8.906 1.143,-2.762 2.715,-5.16 4.715,-7.192 2.001,-2.032 4.334,-3.619 7.001,-4.762 2.668,-1.143 5.556,-1.715 8.668,-1.715 5.016,0 9.271,1.206 12.764,3.62 z" /><path
                             inkscape:connector-curvature="0"
                             id="path140"
                             style="fill:#5d1018;fill-opacity:1;fill-rule:nonzero;stroke:none"
                             d="m 602.9588,320.0443 c -3.536,0 -6.887,0.662 -9.959,1.965 -3.075,1.303 -5.771,3.135 -8.015,5.447 -2.237,2.303 -4.029,5.057 -5.329,8.187 -1.301,3.136 -1.96,6.548 -1.96,10.14 0,3.594 0.66,6.992 1.963,10.096 1.298,3.098 3.091,5.835 5.326,8.136 2.237,2.305 4.93,4.152 8.003,5.49 3.081,1.339 6.436,2.017 9.971,2.017 6.263,0 11.551,-1.738 15.72,-5.167 l 0.959,-0.789 -2.604,-3.79 -1.144,0.981 c -3.289,2.818 -7.64,4.247 -12.931,4.247 -2.906,0 -5.639,-0.555 -8.122,-1.649 -2.498,-1.101 -4.713,-2.622 -6.582,-4.52 -1.869,-1.9 -3.359,-4.16 -4.43,-6.716 -1.068,-2.552 -1.61,-5.357 -1.61,-8.336 0,-2.982 0.543,-5.803 1.612,-8.388 1.071,-2.587 2.56,-4.861 4.428,-6.759 1.866,-1.896 4.076,-3.4 6.57,-4.468 2.487,-1.066 5.224,-1.605 8.134,-1.605 4.713,0 8.748,1.137 11.994,3.38 l 1.117,0.771 2.581,-3.753 -1.107,-0.769 c -3.96,-2.753 -8.868,-4.148 -14.585,-4.148" /><path
                             inkscape:connector-curvature="0"
                             id="path142"
                             style="fill:#5d1018;fill-opacity:1;fill-rule:nonzero;stroke:none"
                             d="m 661.2533,332.2576 c 1.079,1.524 1.777,3.158 2.095,4.905 0.317,1.747 0.476,3.444 0.476,5.096 v 5.43 c -14.034,3.239 -23.781,2.762 -29.242,-1.429 -1.905,-1.524 -3.143,-3.255 -3.715,-5.192 -0.571,-1.937 -0.857,-3.699 -0.857,-5.285 0,-1.081 0.191,-2.334 0.571,-3.763 0.382,-1.429 1.063,-2.795 2.048,-4.096 0.984,-1.302 2.318,-2.414 4.001,-3.334 1.682,-0.921 3.825,-1.381 6.429,-1.381 1.461,0 3.001,0.158 4.62,0.476 1.619,0.318 3.239,0.825 4.858,1.524 1.619,0.698 3.191,1.634 4.715,2.81 1.524,1.175 2.858,2.587 4.001,4.239 m -13.05,37.91 c 3.619,0 6.556,-0.54 8.811,-1.619 2.253,-1.081 4.032,-2.588 5.334,-4.524 1.301,-1.938 2.175,-4.256 2.62,-6.954 0.443,-2.7 0.666,-5.667 0.666,-8.906 v -26.194 h -1.81 v 10.858 c -0.19,-0.318 -0.366,-0.604 -0.524,-0.857 -0.159,-0.254 -0.333,-0.54 -0.523,-0.857 -1.271,-1.779 -2.715,-3.286 -4.334,-4.524 -1.619,-1.239 -3.319,-2.239 -5.097,-3.001 -1.778,-0.762 -3.556,-1.318 -5.334,-1.666 -1.778,-0.349 -3.428,-0.524 -4.953,-0.524 -2.985,0 -5.429,0.524 -7.334,1.571 -1.905,1.048 -3.429,2.301 -4.572,3.762 -1.143,1.461 -1.937,3.016 -2.382,4.668 -0.445,1.65 -0.666,3.11 -0.666,4.382 0,1.776 0.333,3.762 1,5.953 0.667,2.191 2.11,4.174 4.334,5.953 5.778,4.508 15.874,5.143 30.29,1.905 -0.064,2.858 -0.318,5.429 -0.762,7.715 -0.445,2.287 -1.238,4.254 -2.381,5.906 -1.143,1.65 -2.715,2.92 -4.715,3.81 -2.001,0.888 -4.557,1.334 -7.668,1.334 -1.524,0 -3.541,-0.176 -6.048,-0.524 -2.51,-0.35 -5.192,-1.16 -8.049,-2.429 l -0.762,1.714 c 3.048,1.27 5.873,2.095 8.477,2.477 2.603,0.381 4.73,0.571 6.382,0.571" /><path
                             inkscape:connector-curvature="0"
                             id="path144"
                             style="fill:#5d1018;fill-opacity:1;fill-rule:nonzero;stroke:none"
                             d="m 647.9163,348.4503 c -5.489,0 -9.673,-1.089 -12.509,-3.265 -1.654,-1.324 -2.751,-2.844 -3.241,-4.501 -0.532,-1.806 -0.801,-3.455 -0.801,-4.902 0,-0.953 0.177,-2.103 0.525,-3.414 0.335,-1.254 0.947,-2.475 1.82,-3.627 0.863,-1.143 2.065,-2.14 3.57,-2.963 1.473,-0.807 3.417,-1.215 5.779,-1.215 1.373,0 2.839,0.151 4.358,0.451 1.518,0.297 3.059,0.781 4.584,1.438 1.506,0.649 2.994,1.537 4.424,2.639 1.406,1.084 2.656,2.409 3.714,3.937 l 0.008,0.013 c 0.959,1.352 1.587,2.821 1.868,4.364 0.302,1.658 0.455,3.291 0.455,4.853 v 4.348 c -5.575,1.23 -10.432,1.844 -14.554,1.844 m -4.857,-28.406 c -3.201,0 -5.888,0.585 -7.986,1.738 -2.06,1.134 -3.738,2.519 -4.987,4.115 -1.251,1.598 -2.133,3.332 -2.623,5.151 -0.473,1.757 -0.713,3.35 -0.713,4.734 0,1.904 0.356,4.04 1.06,6.348 0.744,2.447 2.354,4.673 4.782,6.616 5.946,4.64 15.672,5.472 29.719,2.541 -0.111,2.093 -0.336,4.025 -0.674,5.763 -0.408,2.09 -1.136,3.906 -2.165,5.394 -0.993,1.433 -2.39,2.557 -4.152,3.342 -1.819,0.808 -4.214,1.218 -7.116,1.218 -1.443,0 -3.417,-0.172 -5.863,-0.511 -2.371,-0.332 -4.957,-1.114 -7.685,-2.327 l -1.238,-0.55 -1.875,4.22 1.28,0.534 c 3.139,1.308 6.101,2.172 8.802,2.567 2.649,0.389 4.863,0.585 6.579,0.585 3.805,0 6.965,-0.589 9.394,-1.752 2.467,-1.182 4.443,-2.862 5.875,-4.99 1.405,-2.093 2.357,-4.613 2.832,-7.489 0.454,-2.766 0.684,-5.837 0.684,-9.127 v -27.549 h -4.519 v 7.922 c -0.986,-1.136 -2.059,-2.148 -3.204,-3.023 -1.7,-1.301 -3.511,-2.367 -5.386,-3.17 -1.861,-0.797 -3.747,-1.386 -5.608,-1.751 -1.859,-0.365 -3.613,-0.549 -5.213,-0.549" /><path
                             inkscape:connector-curvature="0"
                             id="path146"
                             style="fill:#5d1018;fill-opacity:1;fill-rule:nonzero;stroke:none"
                             d="m 695.5434,370.1677 c 2.413,0 4.683,-0.461 6.811,-1.381 2.127,-0.921 3.968,-2.159 5.524,-3.715 1.556,-1.556 2.778,-3.397 3.667,-5.525 0.889,-2.127 1.334,-4.429 1.334,-6.905 v -30.671 h -1.905 v 30.671 c 0,2.222 -0.397,4.286 -1.191,6.192 -0.794,1.904 -1.89,3.572 -3.285,5 -1.398,1.429 -3.034,2.539 -4.906,3.334 -1.874,0.793 -3.891,1.191 -6.049,1.191 -2.16,0 -4.191,-0.398 -6.096,-1.191 -1.905,-0.795 -3.557,-1.905 -4.953,-3.334 -1.398,-1.428 -2.493,-3.096 -3.286,-5 -0.795,-1.906 -1.191,-3.97 -1.191,-6.192 v -30.671 h -1.81 v 47.626 h 1.81 v -9.05 c 1.46,2.92 3.556,5.255 6.287,7.002 2.729,1.745 5.81,2.619 9.239,2.619" /><path
                             inkscape:connector-curvature="0"
                             id="path148"
                             style="fill:#5d1018;fill-opacity:1;fill-rule:nonzero;stroke:none"
                             d="m 714.2341,320.6158 h -4.614 v 32.025 c 0,2.031 -0.366,3.939 -1.087,5.672 -0.724,1.735 -1.735,3.274 -3.005,4.575 -1.26,1.289 -2.763,2.31 -4.466,3.033 -1.697,0.719 -3.554,1.083 -5.518,1.083 -1.967,0 -3.843,-0.366 -5.576,-1.086 -1.729,-0.723 -3.246,-1.743 -4.504,-3.03 -1.271,-1.3 -2.282,-2.839 -3.005,-4.575 -0.721,-1.73 -1.086,-3.638 -1.086,-5.672 v -32.025 h -4.521 v 50.335 h 4.521 v -5.908 c 1.199,1.405 2.604,2.624 4.201,3.647 2.94,1.879 6.293,2.833 9.97,2.833 2.584,0 5.056,-0.502 7.347,-1.492 2.275,-0.985 4.275,-2.331 5.946,-4.001 1.672,-1.673 3.003,-3.678 3.958,-5.96 0.955,-2.287 1.439,-4.785 1.439,-7.429 z" /><path
                             inkscape:connector-curvature="0"
                             id="path150"
                             style="fill:#5d1018;fill-opacity:1;fill-rule:nonzero;stroke:none"
                             d="m 736.1201,301.7766 h -1.905 l 9.621,22.194 -20.004,45.626 h 2.001 l 19.051,-43.34 18.86,43.34 h 2 z" /><path
                             inkscape:connector-curvature="0"
                             id="path152"
                             style="fill:#5d1018;fill-opacity:1;fill-rule:nonzero;stroke:none"
                             d="m 737.0066,300.4216 h -4.856 l 10.207,23.546 -20.599,46.984 h 4.959 l 18.16,-41.313 17.978,41.313 h 4.958 z" /><path
                             inkscape:connector-curvature="0"
                             id="path154"
                             style="fill:#5d1018;fill-opacity:1;fill-rule:nonzero;stroke:none"
                             d="m 842.9934,323.7804 v -1.81 h -42.482 v 0.857 c 0,3.81 0.602,7.175 1.809,10.097 1.205,2.92 2.809,5.556 4.811,7.906 2,2.348 4.238,4.492 6.714,6.43 2.478,1.936 5.016,3.762 7.62,5.476 2.478,1.715 4.89,3.43 7.24,5.144 2.349,1.715 4.429,3.587 6.239,5.62 1.809,2.031 3.254,4.301 4.334,6.811 1.079,2.507 1.619,5.381 1.619,8.62 0,2.858 -0.509,5.524 -1.524,8.001 -1.017,2.476 -2.429,4.634 -4.239,6.477 -1.809,1.841 -3.937,3.286 -6.382,4.334 -2.445,1.048 -5.096,1.572 -7.953,1.572 -2.476,0 -4.81,-0.414 -7.002,-1.239 -2.19,-0.825 -4.159,-1.952 -5.905,-3.381 -1.747,-1.429 -3.208,-3.143 -4.381,-5.144 -1.177,-2 -1.986,-4.176 -2.429,-6.524 l -1.81,0.286 c 0.444,2.538 1.317,4.905 2.619,7.095 1.3,2.192 2.905,4.08 4.81,5.668 1.906,1.586 4.048,2.825 6.43,3.715 2.381,0.888 4.937,1.333 7.668,1.333 3.048,0 5.92,-0.571 8.621,-1.714 2.698,-1.143 5.031,-2.715 7,-4.715 1.969,-2.001 3.525,-4.35 4.668,-7.049 1.142,-2.699 1.714,-5.605 1.714,-8.715 0,-3.558 -0.587,-6.684 -1.762,-9.382 -1.176,-2.7 -2.715,-5.13 -4.62,-7.288 -1.904,-2.159 -4.081,-4.128 -6.524,-5.905 -2.447,-1.779 -4.905,-3.493 -7.383,-5.144 -2.541,-1.714 -5,-3.476 -7.381,-5.286 -2.381,-1.81 -4.494,-3.796 -6.335,-5.954 -1.843,-2.159 -3.35,-4.557 -4.525,-7.191 -1.175,-2.635 -1.826,-5.636 -1.952,-9.001 z" /><path
                             inkscape:connector-curvature="0"
                             id="path156"
                             style="fill:#5d1018;fill-opacity:1;fill-rule:nonzero;stroke:none"
                             d="m 844.348,320.6158 h -45.191 v 2.212 c 0,3.974 0.643,7.544 1.911,10.614 1.254,3.037 2.946,5.819 5.032,8.267 2.047,2.405 4.372,4.633 6.91,6.619 2.511,1.962 5.104,3.825 7.71,5.541 2.424,1.677 4.851,3.401 7.188,5.106 2.263,1.652 4.29,3.478 6.024,5.426 1.705,1.914 3.084,4.082 4.102,6.445 1.001,2.327 1.509,5.047 1.509,8.085 0,2.665 -0.479,5.184 -1.423,7.487 -0.945,2.301 -2.275,4.334 -3.952,6.043 -1.676,1.705 -3.679,3.064 -5.95,4.037 -2.262,0.971 -4.758,1.463 -7.419,1.463 -2.297,0 -4.492,-0.388 -6.524,-1.153 -2.042,-0.769 -3.901,-1.833 -5.524,-3.161 -1.616,-1.32 -2.985,-2.929 -4.071,-4.781 -1.093,-1.857 -1.855,-3.905 -2.267,-6.09 l -0.243,-1.292 -4.47,0.705 0.238,1.357 c 0.47,2.69 1.408,5.232 2.789,7.555 1.371,2.31 3.09,4.334 5.107,6.017 2.016,1.677 4.311,3.004 6.822,3.943 2.527,0.942 5.265,1.419 8.143,1.419 3.215,0 6.294,-0.613 9.15,-1.822 2.85,-1.208 5.352,-2.895 7.437,-5.011 2.081,-2.116 3.746,-4.629 4.949,-7.471 1.209,-2.858 1.822,-5.968 1.822,-9.245 0,-3.727 -0.63,-7.065 -1.875,-9.922 -1.228,-2.821 -2.858,-5.393 -4.847,-7.644 -1.958,-2.221 -4.226,-4.275 -6.742,-6.103 -2.469,-1.796 -4.968,-3.537 -7.428,-5.176 -2.489,-1.68 -4.951,-3.444 -7.313,-5.239 -2.293,-1.742 -4.353,-3.678 -6.124,-5.753 -1.748,-2.049 -3.2,-4.358 -4.318,-6.864 -0.935,-2.098 -1.521,-4.478 -1.749,-7.094 h 40.587 z" /><path
                             inkscape:connector-curvature="0"
                             id="path158"
                             style="fill:#5d1018;fill-opacity:1;fill-rule:nonzero;stroke:none"
                             d="m 899.8578,379.7883 c -0.699,2.984 -1.732,5.683 -3.096,8.097 -1.366,2.412 -2.986,4.46 -4.859,6.144 -1.873,1.681 -3.951,2.983 -6.238,3.905 -2.285,0.919 -4.732,1.381 -7.335,1.381 -2.539,0 -4.938,-0.462 -7.19,-1.381 -2.256,-0.922 -4.319,-2.239 -6.192,-3.954 -1.875,-1.714 -3.478,-3.778 -4.811,-6.191 -1.333,-2.414 -2.35,-5.112 -3.048,-8.096 -0.635,-2.667 -1.111,-5.525 -1.428,-8.573 -0.319,-3.048 -0.477,-6.144 -0.477,-9.287 0,-3.143 0.158,-6.319 0.477,-9.525 0.317,-3.207 0.793,-6.272 1.428,-9.192 0.572,-2.857 1.54,-5.509 2.905,-7.953 1.365,-2.446 3,-4.558 4.906,-6.335 1.905,-1.778 4.001,-3.16 6.286,-4.143 2.287,-0.985 4.668,-1.477 7.144,-1.477 2.54,0 4.969,0.492 7.287,1.477 2.317,0.983 4.429,2.349 6.334,4.096 1.906,1.745 3.54,3.841 4.906,6.286 1.365,2.444 2.365,5.127 3.001,8.049 1.205,5.778 1.809,11.859 1.809,18.241 0,6.382 -0.604,12.526 -1.809,18.431 m -21.528,21.336 c 5.716,0 10.635,-1.857 14.764,-5.572 4.128,-3.715 6.986,-8.843 8.573,-15.383 1.206,-5.969 1.809,-12.225 1.809,-18.765 0,-6.541 -0.603,-12.764 -1.809,-18.669 -0.699,-3.176 -1.778,-6.065 -3.238,-8.668 -1.462,-2.604 -3.224,-4.843 -5.287,-6.715 -2.063,-1.874 -4.366,-3.334 -6.905,-4.382 -2.541,-1.047 -5.177,-1.571 -7.907,-1.571 -2.666,0 -5.254,0.524 -7.762,1.571 -2.51,1.048 -4.78,2.525 -6.811,4.429 -2.032,1.906 -3.795,4.159 -5.287,6.764 -1.492,2.603 -2.556,5.46 -3.19,8.572 -0.636,3.048 -1.112,6.191 -1.43,9.43 -0.317,3.239 -0.475,6.477 -0.475,9.716 0,3.239 0.158,6.413 0.475,9.525 0.318,3.111 0.794,6.032 1.43,8.763 0.761,3.175 1.871,6.064 3.333,8.668 1.461,2.603 3.191,4.81 5.192,6.62 2,1.81 4.239,3.206 6.715,4.191 2.477,0.984 5.08,1.476 7.81,1.476" /><path
                             inkscape:connector-curvature="0"
                             id="path160"
                             style="fill:#5d1018;fill-opacity:1;fill-rule:nonzero;stroke:none"
                             d="m 878.3303,397.9609 c -2.348,0 -4.595,-0.431 -6.679,-1.281 -2.095,-0.855 -4.042,-2.1 -5.789,-3.698 -1.756,-1.606 -3.283,-3.574 -4.54,-5.848 -1.268,-2.296 -2.249,-4.902 -2.914,-7.75 -0.62,-2.596 -1.09,-5.422 -1.4,-8.404 -0.312,-2.977 -0.47,-6.054 -0.47,-9.146 0,-3.097 0.158,-6.257 0.47,-9.391 0.312,-3.148 0.784,-6.189 1.405,-9.039 0.547,-2.734 1.476,-5.277 2.764,-7.579 1.29,-2.312 2.852,-4.333 4.647,-6.006 1.78,-1.663 3.765,-2.971 5.898,-3.89 4.267,-1.839 9.152,-1.788 13.364,0.003 2.167,0.92 4.168,2.215 5.95,3.847 1.786,1.638 3.346,3.639 4.638,5.949 1.293,2.315 2.255,4.898 2.86,7.676 1.179,5.659 1.778,11.703 1.778,17.953 0,6.245 -0.598,12.348 -1.778,18.141 -0.666,2.836 -1.659,5.433 -2.951,7.72 -1.287,2.272 -2.83,4.225 -4.586,5.804 -1.747,1.569 -3.713,2.799 -5.839,3.656 -2.117,0.851 -4.415,1.283 -6.828,1.283 m 0,-77.917 c -2.834,0 -5.621,0.564 -8.285,1.676 -2.648,1.106 -5.075,2.684 -7.215,4.692 -2.122,1.989 -3.985,4.37 -5.536,7.078 -1.557,2.714 -2.681,5.734 -3.342,8.975 -0.639,3.064 -1.128,6.285 -1.451,9.568 -0.319,3.262 -0.481,6.575 -0.481,9.848 0,3.275 0.162,6.526 0.482,9.663 0.324,3.161 0.814,6.166 1.458,8.932 0.79,3.296 1.957,6.329 3.472,9.024 1.524,2.72 3.363,5.063 5.464,6.962 2.109,1.909 4.506,3.404 7.123,4.446 2.626,1.043 5.422,1.572 8.311,1.572 6.031,0 11.303,-1.992 15.669,-5.92 4.315,-3.882 7.338,-9.289 8.985,-16.071 1.229,-6.083 1.847,-12.486 1.847,-19.084 0,-6.599 -0.618,-12.972 -1.837,-18.94 -0.729,-3.314 -1.867,-6.355 -3.384,-9.06 -1.528,-2.721 -3.398,-5.096 -5.559,-7.057 -2.164,-1.967 -4.62,-3.524 -7.298,-4.63 -2.695,-1.111 -5.529,-1.674 -8.423,-1.674" /><path
                             inkscape:connector-curvature="0"
                             id="path162"
                             style="fill:#5d1018;fill-opacity:1;fill-rule:nonzero;stroke:none"
                             d="m 928.1466,400.6487 v -78.678 h -1.809 v 74.868 c -0.572,-0.826 -1.272,-1.763 -2.096,-2.81 -0.827,-1.048 -1.827,-2.112 -3,-3.191 -1.177,-1.081 -2.541,-2.16 -4.096,-3.239 -1.557,-1.08 -3.35,-2.095 -5.383,-3.048 l -0.761,1.62 c 2.984,1.333 5.46,2.858 7.429,4.571 1.967,1.715 3.539,3.318 4.715,4.811 1.175,1.492 2.269,3.286 3.286,5.382 z" /><path
                             inkscape:connector-curvature="0"
                             id="path164"
                             style="fill:#5d1018;fill-opacity:1;fill-rule:nonzero;stroke:none"
                             d="m 929.5017,320.6158 h -4.52 v 72.174 c -0.806,-0.977 -1.753,-1.966 -2.824,-2.95 -1.219,-1.12 -2.646,-2.248 -4.24,-3.354 -1.604,-1.114 -3.481,-2.178 -5.58,-3.161 l -1.225,-0.575 -1.924,4.093 1.26,0.564 c 2.846,1.272 5.231,2.737 7.092,4.358 1.898,1.653 3.425,3.209 4.539,4.626 1.108,1.405 2.162,3.132 3.133,5.135 l 0.443,0.913 3.846,-0.643 z" /><path
                             inkscape:connector-curvature="0"
                             id="path166"
                             style="fill:#5d1018;fill-opacity:1;fill-rule:nonzero;stroke:none"
                             d="m 964.818,323.2083 c 3.11,0 6.032,0.587 8.762,1.763 2.731,1.174 5.112,2.776 7.144,4.81 2.033,2.031 3.62,4.444 4.763,7.239 1.144,2.794 1.715,5.777 1.715,8.954 0,3.174 -0.571,6.144 -1.715,8.906 -1.143,2.762 -2.73,5.158 -4.763,7.191 -2.032,2.032 -4.413,3.635 -7.144,4.81 -2.73,1.175 -5.652,1.762 -8.762,1.762 -3.177,0 -6.13,-0.587 -8.859,-1.762 -2.731,-1.175 -5.095,-2.778 -7.095,-4.81 -2.002,-2.033 -3.589,-4.429 -4.763,-7.191 -1.177,-2.762 -1.763,-5.732 -1.763,-8.906 0,-2.224 0.396,-4.653 1.191,-7.288 0.794,-2.635 2.096,-5.095 3.905,-7.381 1.809,-2.286 4.127,-4.208 6.953,-5.763 2.825,-1.557 6.302,-2.334 10.431,-2.334 m 0,47.245 c 3.364,0 6.524,-0.635 9.477,-1.905 2.954,-1.27 5.526,-3 7.716,-5.191 2.191,-2.191 3.905,-4.779 5.143,-7.763 1.238,-2.986 1.858,-6.192 1.858,-9.62 0,-3.43 -0.62,-6.653 -1.858,-9.669 -1.238,-3.016 -2.952,-5.619 -5.143,-7.81 -2.19,-2.191 -4.762,-3.922 -7.716,-5.192 -2.953,-1.27 -6.113,-1.904 -9.477,-1.904 -2.922,0 -5.558,0.38 -7.907,1.142 -2.35,0.762 -4.429,1.794 -6.238,3.096 -1.809,1.301 -3.35,2.794 -4.62,4.477 -1.271,1.682 -2.319,3.429 -3.143,5.239 -0.826,1.809 -1.429,3.634 -1.81,5.477 -0.382,1.841 -0.571,3.555 -0.571,5.144 0,6.096 1.047,11.985 3.143,17.669 2.096,5.683 4.841,10.937 8.24,15.764 3.395,4.825 7.269,9.128 11.619,12.907 4.349,3.777 8.778,6.841 13.288,9.192 l 0.857,-1.62 c -3.556,-1.842 -7.082,-4.16 -10.573,-6.953 -3.493,-2.795 -6.747,-5.938 -9.762,-9.43 -3.017,-3.493 -5.685,-7.32 -8.001,-11.478 -2.32,-4.16 -4.082,-8.558 -5.287,-13.192 2.096,3.555 4.953,6.382 8.572,8.477 3.62,2.095 7.683,3.143 12.193,3.143" /><path
                             inkscape:connector-curvature="0"
                             id="path168"
                             style="fill:#5d1018;fill-opacity:1;fill-rule:nonzero;stroke:none"
                             d="m 964.8177,367.2889 c -2.976,0 -5.776,-0.556 -8.323,-1.652 -2.556,-1.1 -4.798,-2.62 -6.666,-4.517 -1.874,-1.903 -3.381,-4.18 -4.48,-6.77 -1.099,-2.579 -1.656,-5.396 -1.656,-8.375 0,-2.084 0.381,-4.404 1.134,-6.896 0.74,-2.458 1.975,-4.791 3.67,-6.933 1.689,-2.135 3.891,-3.957 6.544,-5.417 2.61,-1.437 5.899,-2.166 9.777,-2.166 2.915,0 5.683,0.556 8.227,1.653 2.561,1.101 4.822,2.623 6.722,4.523 1.895,1.895 3.397,4.18 4.466,6.794 1.071,2.616 1.615,5.456 1.615,8.442 0,2.983 -0.543,5.805 -1.612,8.386 -1.069,2.583 -2.572,4.855 -4.469,6.752 -1.899,1.899 -4.161,3.421 -6.722,4.524 -2.547,1.096 -5.315,1.652 -8.227,1.652 m 0,-47.245 c -3.05,0 -5.851,0.407 -8.325,1.209 -2.471,0.802 -4.696,1.907 -6.611,3.285 -1.912,1.375 -3.564,2.976 -4.91,4.761 -1.325,1.751 -2.433,3.601 -3.294,5.494 -0.864,1.89 -1.505,3.83 -1.905,5.763 -0.397,1.919 -0.598,3.743 -0.598,5.419 0,6.229 1.085,12.331 3.226,18.137 2.128,5.77 4.955,11.179 8.403,16.075 3.442,4.892 7.425,9.316 11.84,13.15 4.409,3.831 8.968,6.983 13.55,9.37 l 1.194,0.622 2.127,-4.017 -1.215,-0.629 c -3.464,-1.794 -6.946,-4.084 -10.351,-6.807 -3.41,-2.73 -6.634,-5.845 -9.582,-9.259 -2.945,-3.41 -5.584,-7.196 -7.843,-11.251 -1.083,-1.94 -2.045,-3.946 -2.883,-6.008 1.303,1.175 2.74,2.219 4.305,3.124 3.813,2.207 8.143,3.327 12.872,3.327 3.533,0 6.901,-0.679 10.013,-2.016 3.099,-1.333 5.837,-3.176 8.138,-5.478 2.306,-2.305 4.135,-5.064 5.436,-8.201 1.302,-3.14 1.963,-6.551 1.963,-10.139 0,-3.589 -0.66,-7.015 -1.961,-10.184 -1.3,-3.169 -3.129,-5.945 -5.438,-8.254 -2.302,-2.303 -5.04,-4.145 -8.138,-5.478 -3.108,-1.337 -6.477,-2.015 -10.013,-2.015" /><path
                             inkscape:connector-curvature="0"
                             id="path170"
                             style="fill:#c01f31;fill-opacity:1;fill-rule:nonzero;stroke:none"
                             d="m 453.0572,472.1997 -19.36,33.795 6.393,3.661 19.344,-33.763 c 1.65,0.64 3.367,1.095 5.126,1.356 l 0.28,71.84 7.367,-0.026 -0.281,-71.835 c 1.719,-0.271 3.406,-0.725 5.024,-1.358 l 33.661,57.86 6.366,-3.706 -33.66,-57.859 c 1.358,-1.101 2.594,-2.343 3.683,-3.705 l 35.523,21.147 3.766,-6.33 -35.623,-21.204 c 0.64,-1.661 1.095,-3.394 1.351,-5.157 l 64.394,-0.083 -0.031,-7.366 -64.421,0.083 c -0.281,-1.73 -0.746,-3.417 -1.39,-5.035 l 46.621,-26.531 -3.679,-6.383 -46.684,26.563 c -1.095,-1.342 -2.331,-2.563 -3.693,-3.641 l 16.231,-28.33 -6.388,-3.661 -16.247,28.352 c -1.596,-0.609 -3.256,-1.049 -4.951,-1.3 l -0.061,-65.452 -7.366,0.005 0.061,65.468 c -1.746,0.271 -3.454,0.736 -5.093,1.385 l -0.043,7.71 c 2.946,-1.705 5.876,-2.01 8.812,-2.023 h 0.016 c 2.92,-0.013 5.796,0.743 8.318,2.174 2.505,1.426 4.608,3.474 6.092,5.946 0.026,0.037 0.048,0.073 0.069,0.11 0.09,0.152 0.18,0.31 0.265,0.467 l 0.005,0.011 c 1.321,2.414 2.027,5.126 2.055,7.894 v 0.084 c 0.007,2.926 -0.748,5.812 -2.195,8.333 l -0.298,0.502 c -1.432,2.326 -3.423,4.276 -5.784,5.665 l -0.105,0.058 c -2.504,1.453 -5.368,2.223 -8.294,2.235 h -0.015 c -2.905,0.013 -5.76,-0.732 -8.265,-2.148 l -0.301,-0.172 c -1.888,-1.128 -3.796,-2.956 -5.113,-4.687 l -10.544,0.045 -40.271,24.6 3.826,6.292 41.84,-25.553 c 1.089,1.352 2.315,2.584 3.667,3.667" /><path
                             inkscape:connector-curvature="0"
                             id="path172"
                             style="fill:#5d1018;fill-opacity:1;fill-rule:nonzero;stroke:none"
                             d="m 468.2617,447.9871 -21.672,0.903 -10e-4,-123.619 -8.385,-0.12 0.16,123.726 -58.398,-0.89 v 8.388 h 88.296 z" /><path
                             inkscape:connector-curvature="0"
                             id="path174"
                             style="fill:#5d1018;fill-opacity:1;fill-rule:nonzero;stroke:none"
                             d="m 476.4093,452.5533 c 0,-4.5 -3.648,-8.148 -8.148,-8.148 -4.499,0 -8.147,3.648 -8.147,8.148 0,4.5 3.648,8.148 8.147,8.148 4.5,0 8.148,-3.648 8.148,-8.148" /></g></g></g></g></g></g></g></g></g></g></g><g
       id="g196"><g
         id="g198"
         clip-path="url(#clipPath202)"><g
           id="g204"
           clip-path="url(#clipPath208)"><g
             id="g210"
             clip-path="url(#clipPath214)"><g
               id="g216" /><g
               id="g326"><g
                 clip-path="url(#clipPath220)"
                 id="g324"><g
                   id="g234" /><g
                   id="g242"><g
                     clip-path="url(#clipPath224)"
                     id="g240"><path
                       d="m 1859.14,298.4155 v 1.813 h 35.77 v -78.79 h -1.812 v 76.977 z"
                       style="fill:#5d1018;fill-opacity:1;fill-rule:nonzero;stroke:none"
                       id="path236"
                       inkscape:connector-curvature="0" /><path
                       d="m 1857.785,301.5832 h 38.48 v -81.499 h -4.522 v 76.976 h -33.958 z"
                       style="fill:#5d1018;fill-opacity:1;fill-rule:nonzero;stroke:none"
                       id="path238"
                       inkscape:connector-curvature="0" /></g></g><g
                   id="g322"><g
                     clip-path="url(#clipPath228)"
                     id="g320"><g
                       clip-path="url(#clipPath232)"
                       id="g318"><path
                         d="m 1854.372,252.535 h -1.813 v 47.693 h 1.813 z m -0.954,-19.078 c -0.444,0 -0.811,0.159 -1.097,0.477 -0.286,0.319 -0.429,0.701 -0.429,1.145 0,1.082 0.51,1.621 1.526,1.621 1.082,0 1.621,-0.539 1.621,-1.621 0,-0.444 -0.142,-0.826 -0.429,-1.145 -0.286,-0.318 -0.682,-0.477 -1.192,-0.477"
                         style="fill:#5d1018;fill-opacity:1;fill-rule:nonzero;stroke:none"
                         id="path244"
                         inkscape:connector-curvature="0" /><path
                         d="m 1853.663,235.3241 c -0.071,0.016 -0.297,0.026 -0.395,0.012 -0.01,-0.05 -0.021,-0.133 -0.021,-0.257 0,-0.125 0.029,-0.181 0.082,-0.24 l 0.089,-0.027 c 0.114,0 0.171,0.018 0.182,0.025 0.056,0.062 0.085,0.117 0.085,0.242 0,0.122 -0.012,0.2 -0.022,0.245 m -0.245,2.731 c 1.836,0 2.976,-1.14 2.976,-2.976 0,-0.777 -0.268,-1.486 -0.776,-2.051 -0.381,-0.423 -1.072,-0.926 -2.2,-0.926 -0.832,0 -1.559,0.32 -2.104,0.926 -0.509,0.566 -0.777,1.275 -0.777,2.051 0,1.836 1.104,2.976 2.881,2.976 m -2.213,63.528 h 4.522 v -50.404 h -4.522 z"
                         style="fill:#5d1018;fill-opacity:1;fill-rule:nonzero;stroke:none"
                         id="path246"
                         inkscape:connector-curvature="0" /><path
                         d="m 1820.223,298.7974 c -2.862,0 -5.516,-0.508 -7.965,-1.526 -2.447,-1.017 -4.562,-2.448 -6.343,-4.293 -1.78,-1.843 -3.196,-4.037 -4.245,-6.582 -1.049,-2.542 -1.669,-5.372 -1.86,-8.489 v -3.148 c 0.191,-3.115 0.811,-5.961 1.86,-8.537 1.049,-2.575 2.465,-4.784 4.245,-6.629 1.781,-1.844 3.896,-3.274 6.343,-4.292 2.449,-1.017 5.103,-1.527 7.965,-1.527 2.989,0 5.74,0.558 8.251,1.67 2.513,1.113 4.674,2.655 6.486,4.626 1.812,1.972 3.212,4.34 4.197,7.106 0.987,2.767 1.479,5.804 1.479,9.109 0,3.308 -0.492,6.344 -1.479,9.11 -0.985,2.766 -2.385,5.136 -4.197,7.107 -1.812,1.971 -3.973,3.514 -6.486,4.625 -2.511,1.114 -5.262,1.67 -8.251,1.67 m -22.225,-20.89 v 16.025 c 0,4.77 0.445,8.871 1.335,12.305 0.891,3.434 2.275,6.248 4.149,8.442 1.877,2.194 4.293,3.799 7.25,4.817 2.957,1.016 6.534,1.526 10.731,1.526 3.052,0 6.073,-0.35 9.062,-1.049 2.989,-0.701 5.691,-1.781 8.108,-3.244 l -0.669,-1.717 c -2.415,1.463 -5.055,2.529 -7.917,3.196 -2.861,0.668 -5.722,1.002 -8.584,1.002 -3.879,0 -7.185,-0.477 -9.92,-1.431 -2.734,-0.954 -4.975,-2.449 -6.725,-4.483 -1.748,-2.036 -3.02,-4.643 -3.816,-7.822 -0.794,-3.181 -1.192,-7.026 -1.192,-11.542 v -7.249 c 1.717,4.325 4.357,7.759 7.918,10.301 3.561,2.545 7.726,3.816 12.495,3.816 3.243,0 6.216,-0.603 8.918,-1.812 2.704,-1.208 5.041,-2.909 7.012,-5.104 1.971,-2.194 3.514,-4.769 4.625,-7.726 1.114,-2.957 1.67,-6.215 1.67,-9.777 0,-3.496 -0.556,-6.74 -1.67,-9.73 -1.111,-2.988 -2.654,-5.563 -4.625,-7.726 -1.971,-2.161 -4.308,-3.847 -7.012,-5.056 -2.702,-1.207 -5.675,-1.811 -8.918,-1.811 -4.769,0 -8.934,1.272 -12.495,3.815 -3.561,2.544 -6.201,5.947 -7.918,10.206 v -13.545 h -1.812 v 22.416 1.431 z"
                         style="fill:#5d1018;fill-opacity:1;fill-rule:nonzero;stroke:none"
                         id="path248"
                         inkscape:connector-curvature="0" /><path
                         d="m 1820.223,255.1289 c 2.782,0 5.373,0.523 7.703,1.554 2.327,1.031 4.358,2.48 6.037,4.305 1.681,1.828 2.999,4.063 3.918,6.643 0.929,2.604 1.4,5.515 1.4,8.655 0,3.14 -0.471,6.052 -1.4,8.654 -0.92,2.582 -2.238,4.817 -3.918,6.645 -1.679,1.827 -3.71,3.275 -6.037,4.304 -2.325,1.031 -4.916,1.554 -7.703,1.554 -2.669,0 -5.174,-0.479 -7.445,-1.423 -2.265,-0.941 -4.246,-2.281 -5.888,-3.982 -1.655,-1.714 -2.99,-3.785 -3.967,-6.158 -0.988,-2.393 -1.58,-5.103 -1.761,-8.055 v -3.065 c 0.179,-2.871 0.772,-5.599 1.761,-8.026 0.977,-2.4 2.311,-4.486 3.965,-6.2 1.642,-1.7 3.624,-3.04 5.888,-3.981 2.274,-0.945 4.779,-1.424 7.445,-1.424 m 1.24,67.248 c 3.141,0 6.293,-0.365 9.37,-1.085 3.115,-0.73 5.975,-1.875 8.501,-3.403 l 0.974,-0.59 -1.666,-4.281 -1.38,0.835 c -2.281,1.383 -4.812,2.404 -7.523,3.036 -2.745,0.642 -5.53,0.966 -8.276,0.966 -3.71,0 -6.897,-0.456 -9.474,-1.355 -2.492,-0.869 -4.559,-2.244 -6.144,-4.087 -1.6,-1.864 -2.788,-4.31 -3.529,-7.268 -0.764,-3.061 -1.152,-6.833 -1.152,-11.213 v -1.772 c 1.571,2.321 3.502,4.304 5.776,5.927 3.778,2.699 8.247,4.068 13.283,4.068 3.421,0 6.608,-0.649 9.471,-1.93 2.866,-1.28 5.378,-3.109 7.467,-5.436 2.076,-2.309 3.719,-5.052 4.885,-8.154 1.166,-3.093 1.757,-6.543 1.757,-10.254 0,-3.644 -0.591,-7.076 -1.755,-10.202 -1.167,-3.136 -2.814,-5.884 -4.894,-8.166 -2.089,-2.291 -4.599,-4.101 -7.46,-5.38 -2.866,-1.28 -6.053,-1.93 -9.471,-1.93 -5.034,0 -9.503,1.369 -13.283,4.068 -2.274,1.624 -4.205,3.596 -5.776,5.894 v -9.485 h -4.521 v 42.752 c 0,4.862 0.464,9.116 1.379,12.645 0.938,3.619 2.429,6.64 4.431,8.982 2.026,2.369 4.662,4.125 7.837,5.218 3.091,1.062 6.849,1.6 11.173,1.6"
                         style="fill:#5d1018;fill-opacity:1;fill-rule:nonzero;stroke:none"
                         id="path250"
                         inkscape:connector-curvature="0" /><path
                         d="m 1765.376,251.9625 c -2.416,0 -4.689,0.462 -6.82,1.383 -2.13,0.923 -3.974,2.162 -5.533,3.72 -1.558,1.559 -2.781,3.402 -3.672,5.533 -0.89,2.13 -1.335,4.435 -1.335,6.915 v 30.715 h 1.907 v -30.715 c 0,-2.225 0.398,-4.292 1.192,-6.201 0.796,-1.907 1.894,-3.577 3.291,-5.007 1.4,-1.431 3.037,-2.542 4.913,-3.339 1.876,-0.794 3.896,-1.192 6.057,-1.192 2.163,0 4.196,0.398 6.105,1.192 1.908,0.797 3.562,1.908 4.96,3.339 1.399,1.43 2.496,3.1 3.29,5.007 0.796,1.909 1.193,3.976 1.193,6.201 v 30.715 h 1.812 v -78.79 h -1.812 v 40.158 c -1.462,-2.924 -3.561,-5.261 -6.296,-7.011 -2.733,-1.748 -5.819,-2.623 -9.252,-2.623"
                         style="fill:#5d1018;fill-opacity:1;fill-rule:nonzero;stroke:none"
                         id="path252"
                         inkscape:connector-curvature="0" /><path
                         d="m 1746.661,301.5832 h 4.617 v -32.07 c 0,-2.033 0.366,-3.945 1.088,-5.68 0.725,-1.738 1.738,-3.279 3.009,-4.582 1.264,-1.291 2.769,-2.314 4.473,-3.037 1.7,-0.72 3.561,-1.085 5.528,-1.085 1.97,0 3.849,0.366 5.584,1.088 1.733,0.723 3.251,1.745 4.512,3.035 1.272,1.3 2.284,2.842 3.009,4.581 0.722,1.733 1.088,3.644 1.088,5.68 v 32.07 h 4.522 v -81.499 h -4.522 v 37.016 c -1.203,-1.409 -2.61,-2.632 -4.211,-3.656 -2.942,-1.882 -6.301,-2.837 -9.982,-2.837 -2.587,0 -5.063,0.503 -7.357,1.494 -2.279,0.988 -4.281,2.335 -5.953,4.006 -1.676,1.677 -3.009,3.684 -3.965,5.968 -0.956,2.289 -1.44,4.791 -1.44,7.438 z"
                         style="fill:#5d1018;fill-opacity:1;fill-rule:nonzero;stroke:none"
                         id="path254"
                         inkscape:connector-curvature="0" /><path
                         d="m 1717.874,298.4155 c 0.892,0.701 1.877,1.273 2.958,1.717 1.082,0.444 2.257,0.668 3.528,0.668 2.672,0 4.882,-0.937 6.63,-2.814 1.749,-1.875 2.623,-4.276 2.623,-7.202 v -36.437 h 7.059 v -1.813 h -7.059 v -16.788 h -1.812 v 16.788 h -12.019 v 1.813 h 12.019 v 36.437 c 0,2.418 -0.7,4.388 -2.099,5.914 -1.397,1.527 -3.179,2.29 -5.342,2.29 -2.098,0 -3.91,-0.7 -5.437,-2.099 z"
                         style="fill:#5d1018;fill-opacity:1;fill-rule:nonzero;stroke:none"
                         id="path256"
                         inkscape:connector-curvature="0" /><path
                         d="m 1724.36,302.1548 c 3.051,0 5.615,-1.092 7.621,-3.245 1.982,-2.124 2.987,-4.858 2.987,-8.125 v -35.083 h 7.058 v -4.522 h -7.058 v -16.788 h -4.522 v 16.788 h -12.019 v 4.522 h 12.019 v 35.083 c 0,2.084 -0.571,3.719 -1.743,4.998 -1.14,1.246 -2.56,1.851 -4.343,1.851 -1.764,0 -3.243,-0.57 -4.521,-1.743 l -1.149,-1.053 -2.653,3.858 0.999,0.785 c 0.988,0.776 2.092,1.417 3.28,1.905 1.243,0.511 2.604,0.769 4.044,0.769"
                         style="fill:#5d1018;fill-opacity:1;fill-rule:nonzero;stroke:none"
                         id="path258"
                         inkscape:connector-curvature="0" /><path
                         d="m 1685.825,277.2872 c -1.588,0.541 -3.004,1.288 -4.245,2.242 -1.239,0.954 -2.241,2.179 -3.004,3.672 -0.763,1.495 -1.145,3.419 -1.145,5.771 0,2.227 0.477,4.087 1.431,5.581 0.954,1.494 2.163,2.703 3.625,3.624 1.463,0.923 3.116,1.59 4.96,2.003 1.845,0.413 3.657,0.62 5.437,0.62 3.243,0 6.312,-0.587 9.204,-1.765 2.895,-1.176 5.485,-2.876 7.775,-5.103 l -1.24,-1.43 c -2.099,2.035 -4.484,3.624 -7.154,4.769 -2.671,1.144 -5.532,1.717 -8.585,1.717 -1.589,0 -3.196,-0.175 -4.817,-0.525 -1.622,-0.349 -3.083,-0.921 -4.388,-1.717 -1.302,-0.794 -2.368,-1.827 -3.195,-3.1 -0.826,-1.271 -1.24,-2.829 -1.24,-4.674 0,-1.97 0.319,-3.608 0.954,-4.912 0.636,-1.303 1.51,-2.352 2.623,-3.148 1.113,-0.795 2.385,-1.446 3.815,-1.955 1.431,-0.509 2.942,-0.985 4.531,-1.431 l 3.052,-0.858 c 1.274,-0.318 2.64,-0.716 4.102,-1.193 1.463,-0.477 2.814,-1.176 4.054,-2.099 1.24,-0.92 2.289,-2.129 3.148,-3.624 0.858,-1.494 1.287,-3.449 1.287,-5.866 0,-2.035 -0.429,-3.799 -1.287,-5.294 -0.859,-1.494 -1.987,-2.734 -3.386,-3.72 -1.398,-0.986 -2.973,-1.717 -4.722,-2.195 -1.749,-0.476 -3.513,-0.715 -5.294,-0.715 -2.734,0 -5.23,0.367 -7.488,1.097 -2.256,0.732 -4.403,1.925 -6.439,3.577 l 1.05,1.431 c 1.907,-1.462 3.879,-2.528 5.913,-3.195 2.037,-0.669 4.357,-1.002 6.964,-1.002 1.526,0 3.053,0.207 4.579,0.62 1.526,0.414 2.894,1.017 4.101,1.812 1.209,0.796 2.194,1.829 2.957,3.1 0.763,1.273 1.144,2.767 1.144,4.484 0,2.035 -0.348,3.705 -1.048,5.007 -0.7,1.304 -1.589,2.337 -2.671,3.101 -1.081,0.763 -2.273,1.367 -3.577,1.811 -1.303,0.446 -2.591,0.828 -3.864,1.145 l -3.052,0.859 c -1.653,0.446 -3.274,0.939 -4.865,1.478"
                         style="fill:#5d1018;fill-opacity:1;fill-rule:nonzero;stroke:none"
                         id="path260"
                         inkscape:connector-curvature="0" /><path
                         d="m 1692.884,302.1548 c 3.409,0 6.677,-0.627 9.716,-1.865 3.041,-1.235 5.803,-3.048 8.207,-5.386 l 0.917,-0.892 -3.016,-3.48 -1.029,0.998 c -1.968,1.908 -4.237,3.421 -6.744,4.497 -3.789,1.622 -8.153,2.07 -12.582,1.112 -1.466,-0.315 -2.8,-0.836 -3.968,-1.549 -1.124,-0.685 -2.054,-1.587 -2.765,-2.682 -0.678,-1.042 -1.021,-2.366 -1.021,-3.935 0,-1.753 0.274,-3.206 0.817,-4.319 0.54,-1.106 1.258,-1.97 2.193,-2.639 1.004,-0.717 2.175,-1.316 3.481,-1.782 1.389,-0.493 2.884,-0.965 4.443,-1.402 l 3.053,-0.859 c 1.244,-0.309 2.654,-0.719 4.155,-1.208 1.598,-0.522 3.093,-1.295 4.443,-2.301 1.383,-1.026 2.565,-2.384 3.513,-4.036 0.974,-1.695 1.468,-3.895 1.468,-6.541 0,-2.264 -0.494,-4.273 -1.468,-5.969 -0.953,-1.659 -2.225,-3.056 -3.78,-4.152 -1.519,-1.072 -3.251,-1.877 -5.146,-2.395 -1.857,-0.506 -3.758,-0.762 -5.65,-0.762 -2.86,0 -5.52,0.391 -7.905,1.162 -2.406,0.781 -4.719,2.064 -6.876,3.815 l -1.002,0.813 2.632,3.586 1.098,-0.842 c 1.779,-1.362 3.633,-2.366 5.512,-2.983 1.89,-0.62 4.09,-0.934 6.541,-0.934 1.397,0 2.819,0.193 4.225,0.573 1.382,0.375 2.631,0.926 3.711,1.636 1.03,0.679 1.885,1.576 2.54,2.666 0.639,1.067 0.95,2.306 0.95,3.786 0,1.802 -0.298,3.271 -0.887,4.366 -0.604,1.127 -1.343,1.989 -2.259,2.635 -0.972,0.686 -2.059,1.237 -3.232,1.636 -1.266,0.433 -2.528,0.807 -3.755,1.113 l -3.091,0.869 c -1.653,0.446 -3.317,0.951 -4.933,1.499 v 10e-4 c -1.724,0.587 -3.284,1.412 -4.634,2.451 -1.393,1.072 -2.532,2.461 -3.384,4.129 -0.859,1.682 -1.294,3.831 -1.294,6.388 0,2.478 0.553,4.602 1.644,6.309 1.058,1.658 2.419,3.019 4.045,4.042 1.587,1.001 3.399,1.735 5.386,2.179 1.937,0.432 3.866,0.652 5.733,0.652"
                         style="fill:#5d1018;fill-opacity:1;fill-rule:nonzero;stroke:none"
                         id="path262"
                         inkscape:connector-curvature="0" /><path
                         d="m 1594.827,276.3813 c 0,-3.115 0.573,-6.057 1.717,-8.823 1.145,-2.767 2.719,-5.166 4.722,-7.202 2.003,-2.035 4.373,-3.639 7.106,-4.817 2.736,-1.176 5.661,-1.765 8.776,-1.765 3.116,0 6.042,0.589 8.775,1.765 2.736,1.178 5.103,2.782 7.107,4.817 2.003,2.036 3.577,4.435 4.721,7.202 1.145,2.766 1.717,5.708 1.717,8.823 0,3.18 -0.572,6.138 -1.717,8.871 -1.144,2.735 -2.718,5.12 -4.721,7.154 -2.004,2.036 -4.371,3.641 -7.107,4.817 -2.733,1.177 -5.659,1.765 -8.775,1.765 -3.115,0 -6.04,-0.588 -8.776,-1.765 -2.733,-1.176 -5.103,-2.781 -7.106,-4.817 -2.003,-2.034 -3.577,-4.419 -4.722,-7.154 -1.144,-2.733 -1.717,-5.691 -1.717,-8.871 m 22.321,-24.419 c -3.37,0 -6.534,0.637 -9.491,1.907 -2.957,1.274 -5.516,3.005 -7.679,5.199 -2.161,2.195 -3.863,4.769 -5.103,7.727 -1.24,2.957 -1.86,6.152 -1.86,9.586 0,3.434 0.62,6.646 1.86,9.634 1.24,2.99 2.942,5.58 5.103,7.774 2.163,2.194 4.722,3.911 7.679,5.151 2.957,1.24 6.121,1.86 9.491,1.86 3.371,0 6.534,-0.62 9.491,-1.86 2.957,-1.24 5.518,-2.957 7.679,-5.151 2.162,-2.194 3.862,-4.784 5.103,-7.774 1.239,-2.988 1.86,-6.2 1.86,-9.634 0,-3.434 -0.621,-6.629 -1.86,-9.586 -1.241,-2.958 -2.941,-5.532 -5.103,-7.727 -2.161,-2.194 -4.722,-3.925 -7.679,-5.199 -2.957,-1.27 -6.12,-1.907 -9.491,-1.907"
                         style="fill:#5d1018;fill-opacity:1;fill-rule:nonzero;stroke:none"
                         id="path264"
                         inkscape:connector-curvature="0" /><path
                         d="m 1617.148,255.1289 c 2.916,0 5.688,0.557 8.24,1.655 2.561,1.102 4.807,2.624 6.677,4.523 1.872,1.903 3.364,4.181 4.434,6.769 1.072,2.588 1.615,5.382 1.615,8.305 0,2.986 -0.543,5.795 -1.612,8.348 -1.072,2.561 -2.565,4.824 -4.437,6.727 -1.87,1.901 -4.116,3.422 -6.677,4.523 -2.549,1.098 -5.321,1.655 -8.24,1.655 -2.917,0 -5.69,-0.557 -8.24,-1.655 -2.563,-1.103 -4.809,-2.625 -6.676,-4.522 -1.872,-1.902 -3.365,-4.165 -4.438,-6.728 -1.07,-2.554 -1.612,-5.363 -1.612,-8.348 0,-2.921 0.543,-5.716 1.615,-8.305 1.071,-2.59 2.564,-4.867 4.435,-6.769 1.867,-1.897 4.113,-3.419 6.676,-4.523 2.554,-1.098 5.327,-1.655 8.24,-1.655 m 0,47.026 c 3.538,0 6.908,-0.662 10.016,-1.965 3.11,-1.305 5.843,-3.139 8.119,-5.45 2.274,-2.307 4.088,-5.069 5.389,-8.206 1.303,-3.14 1.964,-6.556 1.964,-10.153 0,-3.598 -0.661,-6.999 -1.965,-10.11 -1.302,-3.104 -3.115,-5.847 -5.388,-8.153 -2.271,-2.305 -4.999,-4.153 -8.108,-5.492 -3.116,-1.34 -6.489,-2.018 -10.027,-2.018 -3.537,0 -6.91,0.678 -10.026,2.017 -3.108,1.338 -5.835,3.186 -8.108,5.493 -2.276,2.31 -4.089,5.053 -5.388,8.153 -1.304,3.11 -1.965,6.511 -1.965,10.11 0,3.599 0.66,7.015 1.963,10.154 1.299,3.132 3.112,5.893 5.389,8.205 2.279,2.313 5.011,4.146 8.12,5.45 3.108,1.303 6.478,1.965 10.015,1.965"
                         style="fill:#5d1018;fill-opacity:1;fill-rule:nonzero;stroke:none"
                         id="path266"
                         inkscape:connector-curvature="0" /><path
                         d="m 1566.976,222.869 c 2.163,0 3.958,0.732 5.389,2.194 1.431,1.464 2.146,3.307 2.146,5.533 v 21.939 h -12.21 v 1.812 h 12.21 v 45.881 h 1.813 v -45.881 h 6.104 v -1.812 h -6.104 v -21.939 c 0,-2.734 -0.89,-5.023 -2.671,-6.868 -1.78,-1.844 -4.007,-2.766 -6.677,-2.766 -1.272,0 -2.464,0.223 -3.577,0.667 -1.112,0.446 -2.114,1.018 -3.005,1.717 l 1.144,1.527 c 1.527,-1.336 3.339,-2.004 5.438,-2.004"
                         style="fill:#5d1018;fill-opacity:1;fill-rule:nonzero;stroke:none"
                         id="path268"
                         inkscape:connector-curvature="0" /><path
                         d="m 1573.156,301.5832 h 4.522 v -45.881 h 6.104 v -4.523 h -6.104 v -20.583 c 0,-3.085 -1.026,-5.712 -3.051,-7.81 -2.036,-2.109 -4.611,-3.179 -7.651,-3.179 -1.436,0 -2.809,0.257 -4.079,0.764 -1.229,0.492 -2.352,1.134 -3.34,1.909 l -1.043,0.819 2.817,3.755 1.099,-0.962 c 1.283,-1.123 2.77,-1.668 4.546,-1.668 1.798,0 3.244,0.584 4.42,1.786 1.184,1.211 1.76,2.711 1.76,4.586 v 20.583 h -12.21 v 4.523 h 12.21 z"
                         style="fill:#5d1018;fill-opacity:1;fill-rule:nonzero;stroke:none"
                         id="path270"
                         inkscape:connector-curvature="0" /><path
                         d="m 1408.189,353.4179 v 30.1 c 0,2.541 0.462,4.922 1.381,7.143 0.922,2.224 2.191,4.144 3.81,5.763 1.62,1.619 3.525,2.891 5.716,3.811 2.19,0.919 4.524,1.38 7.001,1.38 2.54,0 4.89,-0.461 7.048,-1.38 2.16,-0.92 4.048,-2.192 5.668,-3.811 1.619,-1.619 2.89,-3.539 3.81,-5.763 0.921,-2.221 1.381,-4.602 1.381,-7.143 v -30.1 h -1.809 v 30.1 c 0,2.286 -0.413,4.414 -1.239,6.382 -0.825,1.968 -1.967,3.699 -3.429,5.191 -1.46,1.493 -3.158,2.652 -5.096,3.476 -1.937,0.827 -4.048,1.239 -6.334,1.239 -2.286,0 -4.397,-0.412 -6.335,-1.239 -1.936,-0.824 -3.634,-1.983 -5.096,-3.476 -1.459,-1.492 -2.603,-3.223 -3.428,-5.191 -0.825,-1.968 -1.239,-4.096 -1.239,-6.382 v -30.1 z"
                         style="fill:#5d1018;fill-opacity:1;fill-rule:nonzero;stroke:none"
                         id="path272"
                         inkscape:connector-curvature="0" /><path
                         d="m 1426.097,402.97 c 2.71,0 5.26,-0.501 7.579,-1.489 2.306,-0.982 4.357,-2.362 6.095,-4.1 1.741,-1.741 3.122,-3.828 4.103,-6.202 0.985,-2.374 1.484,-4.952 1.484,-7.661 v -31.455 h -4.518 v 31.455 c 0,2.096 -0.381,4.067 -1.133,5.856 -0.756,1.804 -1.815,3.408 -3.148,4.769 -1.328,1.358 -2.895,2.426 -4.659,3.178 -1.758,0.75 -3.711,1.13 -5.803,1.13 -2.092,0 -4.044,-0.38 -5.803,-1.13 -1.763,-0.751 -3.33,-1.82 -4.659,-3.178 -1.334,-1.363 -2.394,-2.968 -3.147,-4.767 -0.753,-1.793 -1.134,-3.764 -1.134,-5.858 v -31.455 h -4.52 v 31.455 c 0,2.703 0.499,5.28 1.485,7.661 0.985,2.379 2.366,4.466 4.104,6.202 1.738,1.74 3.807,3.119 6.148,4.103 2.351,0.986 4.883,1.486 7.526,1.486"
                         style="fill:#5d1018;fill-opacity:1;fill-rule:nonzero;stroke:none"
                         id="path274"
                         inkscape:connector-curvature="0" /><path
                         d="m 1371.232,378.1355 c -1.586,0.54 -3,1.286 -4.239,2.239 -1.238,0.952 -2.238,2.176 -2.999,3.667 -0.762,1.493 -1.144,3.414 -1.144,5.763 0,2.223 0.476,4.081 1.429,5.572 0.952,1.492 2.159,2.7 3.62,3.619 1.461,0.922 3.111,1.589 4.952,2.001 1.843,0.412 3.653,0.619 5.43,0.619 3.238,0 6.303,-0.586 9.191,-1.762 2.891,-1.175 5.478,-2.873 7.764,-5.096 l -1.238,-1.429 c -2.096,2.033 -4.478,3.619 -7.144,4.763 -2.667,1.142 -5.525,1.714 -8.573,1.714 -1.586,0 -3.191,-0.174 -4.81,-0.524 -1.62,-0.348 -3.079,-0.92 -4.382,-1.714 -1.3,-0.793 -2.365,-1.825 -3.191,-3.096 -0.825,-1.269 -1.238,-2.825 -1.238,-4.667 0,-1.968 0.319,-3.603 0.953,-4.906 0.635,-1.3 1.508,-2.348 2.619,-3.143 1.112,-0.794 2.381,-1.444 3.81,-1.953 1.429,-0.507 2.938,-0.983 4.525,-1.428 l 3.048,-0.858 c 1.271,-0.317 2.635,-0.714 4.096,-1.19 1.461,-0.477 2.81,-1.175 4.047,-2.096 1.239,-0.92 2.286,-2.127 3.144,-3.62 0.857,-1.491 1.286,-3.444 1.286,-5.857 0,-2.032 -0.429,-3.794 -1.286,-5.287 -0.858,-1.491 -1.984,-2.729 -3.381,-3.715 -1.397,-0.984 -2.969,-1.714 -4.716,-2.191 -1.745,-0.476 -3.507,-0.714 -5.286,-0.714 -2.73,0 -5.223,0.366 -7.478,1.095 -2.252,0.731 -4.396,1.922 -6.429,3.572 l 1.048,1.429 c 1.905,-1.46 3.874,-2.524 5.905,-3.191 2.034,-0.667 4.351,-1 6.954,-1 1.524,0 3.048,0.207 4.572,0.619 1.524,0.414 2.89,1.016 4.096,1.81 1.207,0.795 2.191,1.826 2.953,3.095 0.762,1.272 1.142,2.763 1.142,4.478 0,2.032 -0.348,3.699 -1.047,5 -0.698,1.302 -1.587,2.333 -2.667,3.096 -1.079,0.762 -2.27,1.366 -3.572,1.809 -1.301,0.445 -2.587,0.827 -3.858,1.144 l -3.048,0.857 c -1.65,0.445 -3.27,0.937 -4.858,1.476"
                         style="fill:#5d1018;fill-opacity:1;fill-rule:nonzero;stroke:none"
                         id="path276"
                         inkscape:connector-curvature="0" /><path
                         d="m 1378.282,402.97 c 3.405,0 6.669,-0.626 9.702,-1.863 3.036,-1.233 5.795,-3.043 8.197,-5.379 l 0.918,-0.891 -3.015,-3.479 -1.03,0.998 c -1.964,1.907 -4.23,3.417 -6.733,4.49 -3.784,1.621 -8.135,2.067 -12.564,1.112 -1.464,-0.316 -2.797,-0.837 -3.961,-1.547 -1.121,-0.683 -2.05,-1.584 -2.761,-2.678 -0.676,-1.04 -1.019,-2.363 -1.019,-3.929 0,-1.75 0.274,-3.2 0.815,-4.312 0.539,-1.105 1.256,-1.967 2.19,-2.635 1.002,-0.715 2.17,-1.313 3.476,-1.777 1.389,-0.494 2.882,-0.965 4.435,-1.401 l 3.051,-0.857 c 1.255,-0.314 2.663,-0.723 4.148,-1.208 1.595,-0.519 3.088,-1.292 4.437,-2.297 1.382,-1.026 2.562,-2.382 3.509,-4.032 0.973,-1.692 1.466,-3.889 1.466,-6.532 0,-2.261 -0.493,-4.267 -1.466,-5.962 -0.953,-1.657 -2.224,-3.052 -3.775,-4.146 -1.519,-1.071 -3.248,-1.875 -5.14,-2.391 -1.853,-0.506 -3.752,-0.762 -5.642,-0.762 -2.856,0 -5.513,0.39 -7.895,1.161 -2.403,0.78 -4.713,2.062 -6.866,3.809 l -1.002,0.813 2.63,3.584 1.098,-0.842 c 1.774,-1.36 3.626,-2.362 5.503,-2.978 1.887,-0.619 4.084,-0.933 6.532,-0.933 1.395,0 2.814,0.193 4.217,0.573 1.382,0.375 2.628,0.924 3.705,1.633 1.046,0.688 1.875,1.558 2.537,2.662 0.639,1.064 0.949,2.301 0.949,3.779 0,1.799 -0.298,3.265 -0.885,4.359 -0.596,1.11 -1.354,1.994 -2.255,2.63 -0.972,0.686 -2.058,1.236 -3.228,1.635 -1.261,0.43 -2.522,0.804 -3.75,1.111 l -3.086,0.867 c -1.652,0.446 -3.314,0.95 -4.926,1.497 v 0.001 c -1.721,0.587 -3.279,1.41 -4.627,2.447 -1.393,1.071 -2.53,2.46 -3.381,4.125 -0.856,1.679 -1.291,3.825 -1.291,6.379 0,2.476 0.552,4.596 1.641,6.302 1.059,1.656 2.418,3.015 4.041,4.036 1.584,1 3.394,1.732 5.378,2.177 1.937,0.432 3.863,0.651 5.726,0.651"
                         style="fill:#5d1018;fill-opacity:1;fill-rule:nonzero;stroke:none"
                         id="path278"
                         inkscape:connector-curvature="0" /><path
                         d="m 1313.13,397.7099 c 3.748,2.605 8.351,3.905 13.812,3.905 3.366,0 6.51,-0.618 9.43,-1.857 2.921,-1.238 5.445,-2.953 7.572,-5.143 2.128,-2.192 3.81,-4.778 5.049,-7.763 1.238,-2.985 1.857,-6.192 1.857,-9.621 0,-3.429 -0.619,-6.62 -1.857,-9.573 -1.239,-2.953 -2.921,-5.524 -5.049,-7.715 -2.127,-2.191 -4.651,-3.921 -7.572,-5.192 -2.92,-1.269 -6.064,-1.904 -9.43,-1.904 -5.968,0 -10.921,1.619 -14.859,4.858 l 1.047,1.524 c 3.557,-3.048 8.161,-4.573 13.812,-4.573 3.112,0 6,0.588 8.668,1.763 2.667,1.176 5,2.778 7.001,4.809 2,2.034 3.572,4.415 4.715,7.144 1.143,2.731 1.714,5.685 1.714,8.859 0,3.176 -0.571,6.144 -1.714,8.906 -1.143,2.762 -2.715,5.16 -4.715,7.192 -2.001,2.032 -4.334,3.619 -7.001,4.762 -2.668,1.143 -5.556,1.715 -8.668,1.715 -5.016,0 -9.271,-1.206 -12.764,-3.62 z"
                         style="fill:#5d1018;fill-opacity:1;fill-rule:nonzero;stroke:none"
                         id="path280"
                         inkscape:connector-curvature="0" /><path
                         d="m 1326.942,402.97 c 3.536,0 6.887,-0.662 9.959,-1.965 3.075,-1.303 5.771,-3.135 8.015,-5.447 2.237,-2.303 4.029,-5.057 5.329,-8.187 1.301,-3.136 1.96,-6.548 1.96,-10.14 0,-3.594 -0.66,-6.992 -1.963,-10.096 -1.298,-3.098 -3.091,-5.835 -5.326,-8.136 -2.237,-2.305 -4.93,-4.152 -8.003,-5.49 -3.081,-1.339 -6.436,-2.017 -9.971,-2.017 -6.263,0 -11.551,1.738 -15.72,5.167 l -0.959,0.789 2.604,3.79 1.144,-0.981 c 3.289,-2.818 7.64,-4.247 12.931,-4.247 2.906,0 5.639,0.555 8.122,1.649 2.498,1.101 4.713,2.622 6.582,4.52 1.869,1.9 3.359,4.16 4.43,6.716 1.068,2.552 1.61,5.357 1.61,8.336 0,2.982 -0.543,5.803 -1.612,8.388 -1.071,2.587 -2.56,4.861 -4.428,6.759 -1.866,1.896 -4.076,3.4 -6.57,4.468 -2.487,1.066 -5.224,1.605 -8.134,1.605 -4.713,0 -8.748,-1.137 -11.994,-3.38 l -1.117,-0.771 -2.581,3.753 1.107,0.769 c 3.96,2.753 8.868,4.148 14.585,4.148"
                         style="fill:#5d1018;fill-opacity:1;fill-rule:nonzero;stroke:none"
                         id="path282"
                         inkscape:connector-curvature="0" /><path
                         d="m 1268.647,390.7567 c -1.079,-1.524 -1.777,-3.158 -2.095,-4.905 -0.317,-1.747 -0.476,-3.444 -0.476,-5.096 v -5.43 c 14.034,-3.239 23.781,-2.762 29.242,1.429 1.905,1.524 3.143,3.255 3.715,5.192 0.571,1.937 0.857,3.699 0.857,5.285 0,1.081 -0.191,2.334 -0.571,3.763 -0.382,1.429 -1.063,2.795 -2.048,4.096 -0.984,1.302 -2.318,2.414 -4.001,3.334 -1.682,0.921 -3.825,1.381 -6.429,1.381 -1.461,0 -3.001,-0.158 -4.62,-0.476 -1.619,-0.318 -3.239,-0.825 -4.858,-1.524 -1.619,-0.698 -3.191,-1.634 -4.715,-2.81 -1.524,-1.175 -2.858,-2.587 -4.001,-4.239 m 13.05,-37.91 c -3.619,0 -6.556,0.54 -8.811,1.619 -2.253,1.081 -4.032,2.588 -5.334,4.524 -1.301,1.938 -2.175,4.256 -2.62,6.954 -0.443,2.7 -0.666,5.667 -0.666,8.906 v 26.194 h 1.81 v -10.858 c 0.19,0.318 0.366,0.604 0.524,0.857 0.159,0.254 0.333,0.54 0.523,0.857 1.271,1.779 2.715,3.286 4.334,4.524 1.619,1.239 3.319,2.239 5.097,3.001 1.778,0.762 3.556,1.318 5.334,1.666 1.778,0.349 3.428,0.524 4.953,0.524 2.985,0 5.429,-0.524 7.334,-1.571 1.905,-1.048 3.429,-2.301 4.572,-3.762 1.143,-1.461 1.937,-3.016 2.382,-4.668 0.445,-1.65 0.666,-3.11 0.666,-4.382 0,-1.776 -0.333,-3.762 -1,-5.953 -0.667,-2.191 -2.11,-4.174 -4.334,-5.953 -5.778,-4.508 -15.874,-5.143 -30.29,-1.905 0.064,-2.858 0.318,-5.429 0.762,-7.715 0.445,-2.287 1.238,-4.254 2.381,-5.906 1.143,-1.65 2.715,-2.92 4.715,-3.81 2.001,-0.888 4.557,-1.334 7.668,-1.334 1.524,0 3.541,0.176 6.048,0.524 2.51,0.35 5.192,1.16 8.049,2.429 l 0.762,-1.714 c -3.048,-1.27 -5.873,-2.095 -8.477,-2.477 -2.603,-0.381 -4.73,-0.571 -6.382,-0.571"
                         style="fill:#5d1018;fill-opacity:1;fill-rule:nonzero;stroke:none"
                         id="path284"
                         inkscape:connector-curvature="0" /><path
                         d="m 1281.984,374.564 c 5.489,0 9.673,1.089 12.509,3.265 1.654,1.324 2.751,2.844 3.241,4.501 0.532,1.806 0.801,3.455 0.801,4.902 0,0.953 -0.177,2.103 -0.525,3.414 -0.335,1.254 -0.947,2.475 -1.82,3.627 -0.863,1.143 -2.065,2.14 -3.57,2.963 -1.473,0.807 -3.417,1.215 -5.779,1.215 -1.373,0 -2.839,-0.151 -4.358,-0.451 -1.518,-0.297 -3.059,-0.781 -4.584,-1.438 -1.506,-0.649 -2.994,-1.537 -4.424,-2.639 -1.406,-1.084 -2.656,-2.409 -3.714,-3.937 l -0.01,-0.013 c -0.959,-1.352 -1.587,-2.821 -1.868,-4.364 -0.302,-1.658 -0.455,-3.291 -0.455,-4.853 v -4.348 c 5.575,-1.23 10.432,-1.844 14.554,-1.844 m 4.857,28.406 c 3.201,0 5.888,-0.585 7.986,-1.738 2.06,-1.134 3.738,-2.519 4.987,-4.115 1.251,-1.598 2.133,-3.332 2.623,-5.151 0.473,-1.757 0.713,-3.35 0.713,-4.734 0,-1.904 -0.356,-4.04 -1.06,-6.348 -0.744,-2.447 -2.354,-4.673 -4.782,-6.616 -5.946,-4.64 -15.672,-5.472 -29.719,-2.541 0.111,-2.093 0.336,-4.025 0.674,-5.763 0.408,-2.09 1.136,-3.906 2.165,-5.394 0.993,-1.433 2.39,-2.557 4.152,-3.342 1.819,-0.808 4.214,-1.218 7.116,-1.218 1.443,0 3.417,0.172 5.863,0.511 2.371,0.332 4.957,1.114 7.685,2.327 l 1.238,0.55 1.875,-4.22 -1.28,-0.534 c -3.139,-1.308 -6.101,-2.172 -8.802,-2.567 -2.649,-0.389 -4.863,-0.585 -6.579,-0.585 -3.805,0 -6.965,0.589 -9.394,1.752 -2.467,1.182 -4.443,2.862 -5.875,4.99 -1.405,2.093 -2.357,4.613 -2.832,7.489 -0.454,2.766 -0.684,5.837 -0.684,9.127 v 27.549 h 4.519 v -7.922 c 0.986,1.136 2.059,2.148 3.204,3.023 1.7,1.301 3.511,2.367 5.386,3.17 1.861,0.797 3.747,1.386 5.608,1.751 1.859,0.365 3.613,0.549 5.213,0.549"
                         style="fill:#5d1018;fill-opacity:1;fill-rule:nonzero;stroke:none"
                         id="path286"
                         inkscape:connector-curvature="0" /><path
                         d="m 1234.357,352.8466 c -2.413,0 -4.683,0.461 -6.811,1.381 -2.127,0.921 -3.968,2.159 -5.524,3.715 -1.556,1.556 -2.778,3.397 -3.667,5.525 -0.889,2.127 -1.334,4.429 -1.334,6.905 v 30.671 h 1.905 v -30.671 c 0,-2.222 0.397,-4.286 1.191,-6.192 0.794,-1.904 1.89,-3.572 3.285,-5 1.398,-1.429 3.034,-2.539 4.906,-3.334 1.874,-0.793 3.891,-1.191 6.049,-1.191 2.16,0 4.191,0.398 6.096,1.191 1.905,0.795 3.557,1.905 4.953,3.334 1.398,1.428 2.493,3.096 3.286,5 0.795,1.906 1.191,3.97 1.191,6.192 v 30.671 h 1.81 v -47.626 h -1.81 v 9.05 c -1.46,-2.92 -3.556,-5.255 -6.287,-7.002 -2.729,-1.745 -5.81,-2.619 -9.239,-2.619"
                         style="fill:#5d1018;fill-opacity:1;fill-rule:nonzero;stroke:none"
                         id="path288"
                         inkscape:connector-curvature="0" /><path
                         d="m 1215.666,402.3985 h 4.614 v -32.025 c 0,-2.031 0.366,-3.939 1.087,-5.672 0.724,-1.735 1.735,-3.274 3.005,-4.575 1.26,-1.289 2.763,-2.31 4.466,-3.033 1.697,-0.719 3.554,-1.083 5.518,-1.083 1.967,0 3.843,0.366 5.576,1.086 1.729,0.723 3.246,1.743 4.504,3.03 1.271,1.3 2.282,2.839 3.005,4.575 0.721,1.73 1.086,3.638 1.086,5.672 v 32.025 h 4.521 v -50.335 h -4.521 v 5.908 c -1.199,-1.405 -2.604,-2.624 -4.201,-3.647 -2.94,-1.879 -6.293,-2.833 -9.97,-2.833 -2.584,0 -5.056,0.502 -7.347,1.492 -2.275,0.985 -4.275,2.331 -5.946,4.001 -1.672,1.673 -3.003,3.678 -3.958,5.96 -0.955,2.287 -1.439,4.785 -1.439,7.429 z"
                         style="fill:#5d1018;fill-opacity:1;fill-rule:nonzero;stroke:none"
                         id="path290"
                         inkscape:connector-curvature="0" /><path
                         d="m 1193.78,421.2377 h 1.905 l -9.621,-22.194 20.004,-45.626 h -2.001 l -19.051,43.34 -18.86,-43.34 h -2 z"
                         style="fill:#5d1018;fill-opacity:1;fill-rule:nonzero;stroke:none"
                         id="path292"
                         inkscape:connector-curvature="0" /><path
                         d="m 1192.894,422.5927 h 4.856 l -10.207,-23.546 20.599,-46.984 h -4.959 l -18.16,41.313 -17.978,-41.313 h -4.958 z"
                         style="fill:#5d1018;fill-opacity:1;fill-rule:nonzero;stroke:none"
                         id="path294"
                         inkscape:connector-curvature="0" /><path
                         d="m 1086.907,399.2339 v 1.81 h 42.482 v -0.857 c 0,-3.81 -0.602,-7.175 -1.809,-10.097 -1.205,-2.92 -2.809,-5.556 -4.811,-7.906 -2,-2.348 -4.238,-4.492 -6.714,-6.43 -2.478,-1.936 -5.016,-3.762 -7.62,-5.476 -2.478,-1.715 -4.89,-3.43 -7.24,-5.144 -2.349,-1.715 -4.429,-3.587 -6.239,-5.62 -1.809,-2.031 -3.254,-4.301 -4.334,-6.811 -1.079,-2.507 -1.619,-5.381 -1.619,-8.62 0,-2.858 0.509,-5.524 1.524,-8.001 1.017,-2.476 2.429,-4.634 4.239,-6.477 1.809,-1.841 3.937,-3.286 6.382,-4.334 2.445,-1.048 5.096,-1.572 7.953,-1.572 2.476,0 4.81,0.414 7.002,1.239 2.19,0.825 4.159,1.952 5.905,3.381 1.747,1.429 3.208,3.143 4.381,5.144 1.177,2 1.986,4.176 2.429,6.524 l 1.81,-0.286 c -0.444,-2.538 -1.317,-4.905 -2.619,-7.095 -1.3,-2.192 -2.905,-4.08 -4.81,-5.668 -1.906,-1.586 -4.048,-2.825 -6.43,-3.715 -2.381,-0.888 -4.937,-1.333 -7.668,-1.333 -3.048,0 -5.92,0.571 -8.621,1.714 -2.698,1.143 -5.031,2.715 -7,4.715 -1.969,2.001 -3.525,4.35 -4.668,7.049 -1.142,2.699 -1.714,5.605 -1.714,8.715 0,3.558 0.587,6.684 1.762,9.382 1.176,2.7 2.715,5.13 4.62,7.288 1.904,2.159 4.081,4.128 6.524,5.905 2.447,1.779 4.905,3.493 7.383,5.144 2.541,1.714 5,3.476 7.381,5.286 2.381,1.81 4.494,3.796 6.335,5.954 1.843,2.159 3.35,4.557 4.525,7.191 1.175,2.635 1.826,5.636 1.952,9.001 z"
                         style="fill:#5d1018;fill-opacity:1;fill-rule:nonzero;stroke:none"
                         id="path296"
                         inkscape:connector-curvature="0" /><path
                         d="m 1085.553,402.3985 h 45.191 v -2.212 c 0,-3.974 -0.643,-7.544 -1.911,-10.614 -1.254,-3.037 -2.946,-5.819 -5.032,-8.267 -2.047,-2.405 -4.372,-4.633 -6.91,-6.619 -2.511,-1.962 -5.104,-3.825 -7.71,-5.541 -2.424,-1.677 -4.851,-3.401 -7.188,-5.106 -2.263,-1.652 -4.29,-3.478 -6.024,-5.426 -1.705,-1.914 -3.084,-4.082 -4.102,-6.445 -1.001,-2.327 -1.509,-5.047 -1.509,-8.085 0,-2.665 0.479,-5.184 1.423,-7.487 0.945,-2.301 2.275,-4.334 3.952,-6.043 1.676,-1.705 3.679,-3.064 5.95,-4.037 2.262,-0.971 4.758,-1.463 7.419,-1.463 2.297,0 4.492,0.388 6.524,1.153 2.042,0.769 3.901,1.833 5.524,3.161 1.616,1.32 2.985,2.929 4.071,4.781 1.093,1.857 1.855,3.905 2.267,6.09 l 0.243,1.292 4.47,-0.705 -0.238,-1.357 c -0.47,-2.69 -1.408,-5.232 -2.789,-7.555 -1.371,-2.31 -3.09,-4.334 -5.107,-6.017 -2.016,-1.677 -4.311,-3.004 -6.822,-3.943 -2.527,-0.942 -5.265,-1.419 -8.143,-1.419 -3.215,0 -6.294,0.613 -9.15,1.822 -2.85,1.208 -5.352,2.895 -7.437,5.011 -2.081,2.116 -3.746,4.629 -4.949,7.471 -1.209,2.858 -1.822,5.968 -1.822,9.245 0,3.727 0.63,7.065 1.875,9.922 1.228,2.821 2.858,5.393 4.847,7.644 1.958,2.221 4.226,4.275 6.742,6.103 2.469,1.796 4.968,3.537 7.428,5.176 2.489,1.68 4.951,3.444 7.313,5.239 2.293,1.742 4.353,3.678 6.124,5.753 1.748,2.049 3.2,4.358 4.318,6.864 0.935,2.098 1.521,4.478 1.749,7.094 h -40.587 z"
                         style="fill:#5d1018;fill-opacity:1;fill-rule:nonzero;stroke:none"
                         id="path298"
                         inkscape:connector-curvature="0" /><path
                         d="m 1030.043,343.226 c 0.699,-2.984 1.732,-5.683 3.096,-8.097 1.366,-2.412 2.986,-4.46 4.859,-6.144 1.873,-1.681 3.951,-2.983 6.238,-3.905 2.285,-0.919 4.732,-1.381 7.335,-1.381 2.539,0 4.938,0.462 7.19,1.381 2.256,0.922 4.319,2.239 6.192,3.954 1.875,1.714 3.478,3.778 4.811,6.191 1.333,2.414 2.35,5.112 3.048,8.096 0.635,2.667 1.111,5.525 1.428,8.573 0.319,3.048 0.477,6.144 0.477,9.287 0,3.143 -0.158,6.319 -0.477,9.525 -0.317,3.207 -0.793,6.272 -1.428,9.192 -0.572,2.857 -1.54,5.509 -2.905,7.953 -1.365,2.446 -3,4.558 -4.906,6.335 -1.905,1.778 -4.001,3.16 -6.286,4.143 -2.287,0.985 -4.668,1.477 -7.144,1.477 -2.54,0 -4.969,-0.492 -7.287,-1.477 -2.317,-0.983 -4.429,-2.349 -6.334,-4.096 -1.906,-1.745 -3.54,-3.841 -4.906,-6.286 -1.365,-2.444 -2.365,-5.127 -3.001,-8.049 -1.205,-5.778 -1.809,-11.859 -1.809,-18.241 0,-6.382 0.604,-12.526 1.809,-18.431 m 21.528,-21.336 c -5.716,0 -10.635,1.857 -14.764,5.572 -4.128,3.715 -6.986,8.843 -8.573,15.383 -1.206,5.969 -1.809,12.225 -1.809,18.765 0,6.541 0.603,12.764 1.809,18.669 0.699,3.176 1.778,6.065 3.238,8.668 1.462,2.604 3.224,4.843 5.287,6.715 2.063,1.874 4.366,3.334 6.905,4.382 2.541,1.047 5.177,1.571 7.907,1.571 2.666,0 5.254,-0.524 7.762,-1.571 2.51,-1.048 4.78,-2.525 6.811,-4.429 2.032,-1.906 3.795,-4.159 5.287,-6.764 1.492,-2.603 2.556,-5.46 3.19,-8.572 0.636,-3.048 1.112,-6.191 1.43,-9.43 0.317,-3.239 0.475,-6.477 0.475,-9.716 0,-3.239 -0.158,-6.413 -0.475,-9.525 -0.318,-3.111 -0.794,-6.032 -1.43,-8.763 -0.761,-3.175 -1.871,-6.064 -3.333,-8.668 -1.461,-2.603 -3.191,-4.81 -5.192,-6.62 -2,-1.81 -4.239,-3.206 -6.715,-4.191 -2.477,-0.984 -5.08,-1.476 -7.81,-1.476"
                         style="fill:#5d1018;fill-opacity:1;fill-rule:nonzero;stroke:none"
                         id="path300"
                         inkscape:connector-curvature="0" /><path
                         d="m 1051.57,325.0534 c 2.348,0 4.595,0.431 6.679,1.281 2.095,0.855 4.042,2.1 5.789,3.698 1.756,1.606 3.283,3.574 4.54,5.848 1.268,2.296 2.249,4.902 2.914,7.75 0.62,2.596 1.09,5.422 1.4,8.404 0.312,2.977 0.47,6.054 0.47,9.146 0,3.097 -0.158,6.257 -0.47,9.391 -0.312,3.148 -0.784,6.189 -1.405,9.039 -0.547,2.734 -1.476,5.277 -2.764,7.579 -1.29,2.312 -2.852,4.333 -4.647,6.006 -1.78,1.663 -3.765,2.971 -5.898,3.89 -4.267,1.839 -9.152,1.788 -13.364,-0.003 -2.167,-0.92 -4.168,-2.215 -5.95,-3.847 -1.786,-1.638 -3.346,-3.639 -4.638,-5.949 -1.293,-2.315 -2.255,-4.898 -2.86,-7.676 -1.179,-5.659 -1.778,-11.703 -1.778,-17.953 0,-6.245 0.598,-12.348 1.778,-18.141 0.666,-2.836 1.659,-5.433 2.951,-7.72 1.287,-2.272 2.83,-4.225 4.586,-5.804 1.747,-1.569 3.713,-2.799 5.839,-3.656 2.117,-0.851 4.415,-1.283 6.828,-1.283 m 0,77.917 c 2.834,0 5.621,-0.564 8.285,-1.676 2.648,-1.106 5.075,-2.684 7.215,-4.692 2.122,-1.989 3.985,-4.37 5.536,-7.078 1.557,-2.714 2.681,-5.734 3.342,-8.975 0.639,-3.064 1.128,-6.285 1.451,-9.568 0.319,-3.262 0.481,-6.575 0.481,-9.848 0,-3.275 -0.162,-6.526 -0.482,-9.663 -0.324,-3.161 -0.814,-6.166 -1.458,-8.932 -0.79,-3.296 -1.957,-6.329 -3.472,-9.024 -1.524,-2.72 -3.363,-5.063 -5.464,-6.962 -2.109,-1.909 -4.506,-3.404 -7.123,-4.446 -2.626,-1.043 -5.422,-1.572 -8.311,-1.572 -6.031,0 -11.303,1.992 -15.669,5.92 -4.315,3.882 -7.338,9.289 -8.985,16.071 -1.229,6.083 -1.847,12.486 -1.847,19.084 0,6.599 0.618,12.972 1.837,18.94 0.729,3.314 1.867,6.355 3.384,9.06 1.528,2.721 3.398,5.096 5.559,7.057 2.164,1.967 4.62,3.524 7.298,4.63 2.695,1.111 5.529,1.674 8.423,1.674"
                         style="fill:#5d1018;fill-opacity:1;fill-rule:nonzero;stroke:none"
                         id="path302"
                         inkscape:connector-curvature="0" /><path
                         d="m 1001.754,322.3656 v 78.678 h 1.809 v -74.868 c 0.572,0.826 1.272,1.763 2.096,2.81 0.827,1.048 1.827,2.112 3,3.191 1.177,1.081 2.541,2.16 4.096,3.239 1.557,1.08 3.35,2.095 5.383,3.048 l 0.761,-1.62 c -2.984,-1.333 -5.46,-2.858 -7.429,-4.571 -1.967,-1.715 -3.539,-3.318 -4.715,-4.811 -1.175,-1.492 -2.269,-3.286 -3.286,-5.382 z"
                         style="fill:#5d1018;fill-opacity:1;fill-rule:nonzero;stroke:none"
                         id="path304"
                         inkscape:connector-curvature="0" /><path
                         d="m 1000.399,402.3985 h 4.52 v -72.174 c 0.806,0.977 1.753,1.966 2.824,2.95 1.219,1.12 2.646,2.248 4.24,3.354 1.604,1.114 3.481,2.178 5.58,3.161 l 1.225,0.575 1.924,-4.093 -1.26,-0.564 c -2.846,-1.272 -5.231,-2.737 -7.092,-4.358 -1.898,-1.653 -3.425,-3.209 -4.539,-4.626 -1.108,-1.405 -2.162,-3.132 -3.133,-5.135 l -0.443,-0.913 -3.846,0.643 z"
                         style="fill:#5d1018;fill-opacity:1;fill-rule:nonzero;stroke:none"
                         id="path306"
                         inkscape:connector-curvature="0" /><path
                         d="m 965.0826,399.806 c -3.11,0 -6.032,-0.587 -8.762,-1.763 -2.731,-1.174 -5.112,-2.776 -7.144,-4.81 -2.033,-2.031 -3.62,-4.444 -4.763,-7.239 -1.144,-2.794 -1.715,-5.777 -1.715,-8.954 0,-3.174 0.571,-6.144 1.715,-8.906 1.143,-2.762 2.73,-5.158 4.763,-7.191 2.032,-2.032 4.413,-3.635 7.144,-4.81 2.73,-1.175 5.652,-1.762 8.762,-1.762 3.177,0 6.13,0.587 8.859,1.762 2.731,1.175 5.095,2.778 7.095,4.81 2.002,2.033 3.589,4.429 4.763,7.191 1.177,2.762 1.763,5.732 1.763,8.906 0,2.224 -0.396,4.653 -1.191,7.288 -0.794,2.635 -2.096,5.095 -3.905,7.381 -1.809,2.286 -4.127,4.208 -6.953,5.763 -2.825,1.557 -6.302,2.334 -10.431,2.334 m 0,-47.245 c -3.364,0 -6.524,0.635 -9.477,1.905 -2.954,1.27 -5.526,3 -7.716,5.191 -2.191,2.191 -3.905,4.779 -5.143,7.763 -1.238,2.986 -1.858,6.192 -1.858,9.62 0,3.43 0.62,6.653 1.858,9.669 1.238,3.016 2.952,5.619 5.143,7.81 2.19,2.191 4.762,3.922 7.716,5.192 2.953,1.27 6.113,1.904 9.477,1.904 2.922,0 5.558,-0.38 7.907,-1.142 2.35,-0.762 4.429,-1.794 6.238,-3.096 1.809,-1.301 3.35,-2.794 4.62,-4.477 1.271,-1.682 2.319,-3.429 3.143,-5.239 0.826,-1.809 1.429,-3.634 1.81,-5.477 0.382,-1.841 0.571,-3.555 0.571,-5.144 0,-6.096 -1.047,-11.985 -3.143,-17.669 -2.096,-5.683 -4.841,-10.937 -8.24,-15.764 -3.395,-4.825 -7.269,-9.128 -11.619,-12.907 -4.349,-3.777 -8.778,-6.841 -13.288,-9.192 l -0.857,1.62 c 3.556,1.842 7.082,4.16 10.573,6.953 3.493,2.795 6.747,5.938 9.762,9.43 3.017,3.493 5.685,7.32 8.001,11.478 2.32,4.16 4.082,8.558 5.287,13.192 -2.096,-3.555 -4.953,-6.382 -8.572,-8.477 -3.62,-2.095 -7.683,-3.143 -12.193,-3.143"
                         style="fill:#5d1018;fill-opacity:1;fill-rule:nonzero;stroke:none"
                         id="path308"
                         inkscape:connector-curvature="0" /><path
                         d="m 965.0829,355.7254 c 2.976,0 5.776,0.556 8.323,1.652 2.556,1.1 4.798,2.62 6.666,4.517 1.874,1.903 3.381,4.18 4.48,6.77 1.099,2.579 1.656,5.396 1.656,8.375 0,2.084 -0.381,4.404 -1.134,6.896 -0.74,2.458 -1.975,4.791 -3.67,6.933 -1.689,2.135 -3.891,3.957 -6.544,5.417 -2.61,1.437 -5.899,2.166 -9.777,2.166 -2.915,0 -5.683,-0.556 -8.227,-1.653 -2.561,-1.101 -4.822,-2.623 -6.722,-4.523 -1.895,-1.895 -3.397,-4.18 -4.466,-6.794 -1.071,-2.616 -1.615,-5.456 -1.615,-8.442 0,-2.983 0.543,-5.805 1.612,-8.386 1.069,-2.583 2.572,-4.855 4.469,-6.752 1.899,-1.899 4.161,-3.421 6.722,-4.524 2.547,-1.096 5.315,-1.652 8.227,-1.652 m 0,47.245 c 3.05,0 5.851,-0.407 8.325,-1.209 2.471,-0.802 4.696,-1.907 6.611,-3.285 1.912,-1.375 3.564,-2.976 4.91,-4.761 1.325,-1.751 2.433,-3.601 3.294,-5.494 0.864,-1.89 1.505,-3.83 1.905,-5.763 0.397,-1.919 0.598,-3.743 0.598,-5.419 0,-6.229 -1.085,-12.331 -3.226,-18.137 -2.128,-5.77 -4.955,-11.179 -8.403,-16.075 -3.442,-4.892 -7.425,-9.316 -11.84,-13.15 -4.409,-3.831 -8.968,-6.983 -13.55,-9.37 l -1.194,-0.622 -2.127,4.017 1.215,0.629 c 3.464,1.794 6.946,4.084 10.351,6.807 3.41,2.73 6.634,5.845 9.582,9.259 2.945,3.41 5.584,7.196 7.843,11.251 1.083,1.94 2.045,3.946 2.883,6.008 -1.303,-1.175 -2.74,-2.219 -4.305,-3.124 -3.813,-2.207 -8.143,-3.327 -12.872,-3.327 -3.533,0 -6.901,0.679 -10.013,2.016 -3.099,1.333 -5.837,3.176 -8.138,5.478 -2.306,2.305 -4.135,5.064 -5.436,8.201 -1.302,3.14 -1.963,6.551 -1.963,10.139 0,3.589 0.66,7.015 1.961,10.184 1.3,3.169 3.129,5.945 5.438,8.254 2.302,2.303 5.04,4.145 8.138,5.478 3.108,1.337 6.477,2.015 10.013,2.015"
                         style="fill:#5d1018;fill-opacity:1;fill-rule:nonzero;stroke:none"
                         id="path310"
                         inkscape:connector-curvature="0" /><path
                         d="m 1476.843,250.8146 19.36,-33.795 -6.393,-3.661 -19.344,33.763 c -1.65,-0.64 -3.367,-1.095 -5.126,-1.356 l -0.28,-71.84 -7.367,0.026 0.281,71.835 c -1.719,0.271 -3.406,0.725 -5.024,1.358 l -33.661,-57.86 -6.366,3.706 33.66,57.859 c -1.358,1.101 -2.594,2.343 -3.683,3.705 l -35.523,-21.147 -3.766,6.33 35.623,21.204 c -0.64,1.661 -1.095,3.394 -1.351,5.157 l -64.394,0.083 0.031,7.366 64.421,-0.083 c 0.281,1.73 0.746,3.417 1.39,5.035 l -46.621,26.531 3.679,6.383 46.684,-26.563 c 1.095,1.342 2.331,2.563 3.693,3.641 l -16.231,28.33 6.388,3.661 16.247,-28.352 c 1.596,0.609 3.256,1.049 4.951,1.3 l 0.061,65.452 7.366,-0.005 -0.061,-65.468 c 1.746,-0.271 3.454,-0.736 5.093,-1.385 l 0.043,-7.71 c -2.946,1.705 -5.876,2.01 -8.812,2.023 h -0.016 c -2.92,0.013 -5.796,-0.743 -8.318,-2.174 -2.505,-1.426 -4.608,-3.474 -6.092,-5.946 -0.026,-0.037 -0.048,-0.073 -0.069,-0.11 -0.09,-0.152 -0.18,-0.31 -0.265,-0.467 v -0.011 c -1.321,-2.414 -2.027,-5.126 -2.055,-7.894 v -0.084 c -0.01,-2.926 0.748,-5.812 2.195,-8.333 l 0.298,-0.502 c 1.432,-2.326 3.423,-4.276 5.784,-5.665 l 0.105,-0.058 c 2.504,-1.453 5.368,-2.223 8.294,-2.235 h 0.015 c 2.905,-0.013 5.76,0.732 8.265,2.148 l 0.301,0.172 c 1.888,1.128 3.796,2.956 5.113,4.687 l 10.544,-0.045 40.271,-24.6 -3.826,-6.292 -41.84,25.553 c -1.089,-1.352 -2.315,-2.584 -3.667,-3.667"
                         style="fill:#c01f31;fill-opacity:1;fill-rule:nonzero;stroke:none"
                         id="path312"
                         inkscape:connector-curvature="0" /><path
                         d="m 1461.639,275.0272 21.672,-0.903 10e-4,123.619 8.385,0.12 -0.16,-123.726 58.398,0.89 v -8.388 h -88.296 z"
                         style="fill:#5d1018;fill-opacity:1;fill-rule:nonzero;stroke:none"
                         id="path314"
                         inkscape:connector-curvature="0" /><path
                         d="m 1453.491,270.461 c 0,4.5 3.648,8.148 8.148,8.148 4.499,0 8.147,-3.648 8.147,-8.148 0,-4.5 -3.648,-8.148 -8.147,-8.148 -4.5,0 -8.148,3.648 -8.148,8.148"
                         style="fill:#5d1018;fill-opacity:1;fill-rule:nonzero;stroke:none"
                         id="path316"
                         inkscape:connector-curvature="0" /></g></g></g></g></g></g></g></g></g></g></svg>